<?xml version="1.0" encoding="UTF-8" standalone="no"?>
<!-- Created with Inkscape (http://www.inkscape.org/) -->
<svg
   xmlns:dc="http://purl.org/dc/elements/1.1/"
   xmlns:cc="http://web.resource.org/cc/"
   xmlns:rdf="http://www.w3.org/1999/02/22-rdf-syntax-ns#"
   xmlns:svg="http://www.w3.org/2000/svg"
   xmlns="http://www.w3.org/2000/svg"
   xmlns:sodipodi="http://sodipodi.sourceforge.net/DTD/sodipodi-0.dtd"
   xmlns:inkscape="http://www.inkscape.org/namespaces/inkscape"
   id="svg2211"
   sodipodi:version="0.32"
   inkscape:version="0.45pre1"
   width="850"
   height="737"
   version="1.0"
   sodipodi:docbase="E:\"
   sodipodi:docname="Map_Of_Belarus_blank.png"
   sodipodi:modified="true">
  <metadata
     id="metadata2216">
    <rdf:RDF>
      <cc:Work
         rdf:about="">
        <dc:format>image/svg+xml</dc:format>
        <dc:type
           rdf:resource="http://purl.org/dc/dcmitype/StillImage" />
      </cc:Work>
    </rdf:RDF>
  </metadata>
  <defs
     id="defs2214" />
  <sodipodi:namedview
     inkscape:window-height="712"
     inkscape:window-width="1024"
     inkscape:pageshadow="2"
     inkscape:pageopacity="0.0"
     guidetolerance="10.0"
     gridtolerance="10.0"
     objecttolerance="10.0"
     borderopacity="1.0"
     bordercolor="#666666"
     pagecolor="#ffffff"
     id="base"
     inkscape:zoom="0.36170862"
     inkscape:cx="355.27585"
     inkscape:cy="379.92111"
     inkscape:window-x="-4"
     inkscape:window-y="-4"
     inkscape:current-layer="svg2211" />
  <path
     style="fill:#000000;stroke:#000000;stroke-opacity:0.17365269;opacity:1;fill-opacity:0.39520958"
     d="M 647.27886,734.4753 C 645.58172,732.84548 645.33401,732.06599 646.22886,731.17114 C 646.87299,730.52701 647.985,730 648.7,730 C 650.36702,730 650.4163,728.00731 648.75,727.97804 C 647.4662,727.95548 643.27054,725.9591 634.5,721.1976 L 629.5,718.48312 L 629.5,712.3316 C 629.5,705.31232 627.80445,702.75325 620.18404,698.27116 C 616.36557,696.02526 615.58566,695.88379 613.418,697.04389 C 611.34809,698.15167 610.44828,698.10733 607.61904,696.75816 C 604.33635,695.19275 604.22997,695.21395 602.23685,697.83059 C 600.59695,699.98351 599.95166,700.25814 598.90177,699.25 C 597.01235,697.43572 594.17867,697.7143 591.27287,700 C 588.37163,702.28212 580.86382,702.74898 579.21193,700.75 C 578.6438,700.0625 577.86362,697.8125 577.4782,695.75 C 577.09277,693.6875 576.54032,692 576.25054,692 C 575.96076,692 573.72203,693.84504 571.27559,696.10009 C 567.95072,699.16485 566.218,700.08367 564.41376,699.73876 C 562.24187,699.32358 562,699.62075 562,702.70441 C 562,709.49905 559.12499,711.78582 553.5245,709.44579 C 549.56801,707.79266 549.67633,707.63622 549.95833,714.59616 C 550.19087,720.33531 548.44865,723 544.46376,723 C 541.6677,723 540.06181,725.50069 539.85017,730.18426 C 539.70646,733.36438 539.68287,733.38313 539.27337,730.64251 C 538.58715,726.04989 540.76518,722 543.92132,722 C 547.66445,722 549,720.2704 549,715.42284 L 549,711.24567 L 544.59882,711.74175 C 540.90114,712.15853 540.02339,711.91222 539.10745,710.20078 C 538.50784,709.0804 538.29272,706.78641 538.62939,705.10303 C 539.15991,702.45045 538.88866,701.90817 536.59514,701.03617 C 532.92894,699.64228 532.37737,697.43131 534.32668,691.94292 C 536.49381,685.84121 536.44286,685.20224 533.75867,684.81955 C 531.53809,684.50296 527.06651,677.36188 526.98372,674 C 526.96222,673.12671 526.23249,673.65214 525.23717,675.25759 C 524.29689,676.77426 522.84636,678.2356 522.01378,678.50501 C 521.1812,678.77442 519.72895,680.35382 518.78655,682.01479 C 516.62165,685.83038 514.42226,686.69211 512.13401,684.62128 C 509.45126,682.19342 506.32051,682.64555 501.41348,686.16952 C 496.51032,689.6907 496.05747,691.49996 498.57261,697.51955 C 499.97614,700.87867 499.98264,701.44593 498.633,702.79557 C 497.11726,704.31131 492.64721,704.65758 489.1058,703.53358 C 487.11558,702.90191 485.79264,700.23944 484.02267,693.30362 C 482.64783,687.91614 479.2657,685.30205 472.59126,684.46814 C 467.76167,683.86472 467.05263,684.03827 464.68829,686.40262 C 463.25973,687.83118 461.31014,689 460.35586,689 C 457.75637,689 449.27549,679.29169 448.22965,675.11876 L 447.3227,671.5 L 445.41135,674.84849 C 442.0583,680.72269 439.91169,683.0044 435.73266,685.13639 C 430.22356,687.94692 424.38462,687.2125 421.22672,683.31183 C 419.9747,681.76533 418.49376,679.9375 417.93573,679.25 C 417.37771,678.5625 416.25474,678 415.44025,678 C 414.2371,678 414.36066,678.78663 416.09904,682.19414 L 418.23873,686.38827 L 416.00858,688.19414 C 414.782,689.18736 413.18904,690 412.46867,690 C 411.7483,690 410.84619,691.4625 410.46398,693.25 C 409.10018,699.62815 407.0806,700.35166 401.40047,696.49702 C 398.59503,694.5932 397.39061,694.26086 396.36904,695.10868 C 395.61584,695.73379 393.86935,695.93304 392.39245,695.56236 C 389.80902,694.91396 389.77306,694.97367 390.50206,698.70069 C 391.6096,704.36292 391.6018,705.24847 390.44078,705.66211 C 389.8582,705.86967 388.64948,704.5681 387.75473,702.76974 L 386.12791,699.5 L 386.06395,702.78138 C 386.02599,704.7291 385.39035,706.29671 384.5,706.63837 C 382.56904,707.37935 382.56904,710.39745 384.5,712 C 387.10728,714.16385 386.26918,716.86069 382.5,718.43555 C 378.46055,720.12334 378.54621,719.90129 380.49384,723.63569 C 381.31545,725.21106 381.99045,727.5125 381.99384,728.75 C 382.00051,731.18771 378.77051,735.01874 376.75,734.96959 C 376.0625,734.95287 376.4,734.42882 377.5,733.80505 C 381.41944,731.58248 382.00601,728.45298 379.42936,723.51142 C 377.95465,720.68317 377.98775,720.42834 380.04631,718.76142 C 381.2427,717.79264 382.84672,717 383.61078,717 C 385.46279,717 385.3867,713.56582 383.5,712 C 381.56714,710.39587 381.56714,707.10333 383.5,706.36163 C 384.43529,706.00272 385,704.47727 385,702.30968 C 385,698.19569 386.8132,698.23815 388.84089,702.39962 C 390.65305,706.11877 391.17806,705.22876 389.90079,700.60286 C 388.45518,695.36729 389.21258,693.89252 392.96194,694.64239 C 395.93456,695.23691 396,695.16517 396,691.31209 C 396,688.24201 396.66113,686.74078 399,684.5 C 400.65,682.9192 402,681.26001 402,680.81291 C 402,680.36581 399.73417,680 396.96482,680 C 394.08672,680 390.90946,679.33156 389.54829,678.43968 C 387.27229,676.94839 387.10653,677.00368 385.80103,679.68968 L 384.43511,682.5 L 372.96756,682.17171 C 364.2815,681.92305 361.07553,681.46099 359.75,680.26672 C 357.71376,678.43213 357.45692,675.45368 359.23992,674.35172 C 360.07731,673.83419 359.6715,673.39225 357.98992,672.99043 C 355.78813,672.46431 355.50604,671.88076 355.55216,667.94773 C 355.58085,665.50148 355.95503,662.31073 356.38367,660.85718 C 357.1389,658.29614 357.01828,658.20284 352.48588,657.84236 C 349.16839,657.57851 346.18912,658.15337 342.23734,659.81984 C 339.17308,661.11204 335.72861,661.9322 334.58297,661.64242 C 333.43734,661.35264 329.66321,660.46526 326.19603,659.67047 C 322.72885,658.87568 319.73864,658.06218 319.55112,657.8627 C 319.36361,657.66321 318.51086,655.8125 317.65612,653.75 C 315.78269,649.22936 313.58816,648.94887 304.89423,652.11884 C 297.57305,654.78827 295.08429,654.19242 289.48299,648.4291 C 286.04792,644.89467 284.62011,644.05724 282.80554,644.51267 C 281.53608,644.83128 276.80278,644.45081 272.2871,643.66718 C 266.26529,642.62217 263.24641,641.54369 260.96166,639.62119 C 257.6293,636.81719 254.1535,636.35332 249.25935,638.05943 C 246.19056,639.12922 242.19212,637.99734 237.82519,634.82265 C 236.4733,633.83984 235.3996,633.97028 232.2564,635.49915 C 228.78009,637.19005 228.17094,638.06178 226.5774,643.62606 C 224.8967,649.49468 224.8898,650.15214 226.45926,654.87735 C 228.45271,660.87907 228.00366,662.06755 220.8624,669.69014 C 216.16488,674.70428 214.60649,679.02073 216.96701,680.47961 C 217.49887,680.80832 217.86807,683.58427 217.78745,686.64839 C 217.6852,690.5345 218.07325,692.48016 219.07043,693.08127 C 219.8567,693.55524 221.12193,694.35663 221.88206,694.86214 C 222.64219,695.36766 223.63659,698.13755 224.09184,701.01746 C 225.10239,707.41012 227.14585,709.83978 232.19026,710.64641 C 235.70177,711.20793 241,715.58002 241,717.91621 C 241,718.33573 242.13973,719.19827 243.53274,719.83296 C 245.04837,720.52353 246.84124,722.79672 247.99721,725.49348 C 249.33118,728.60553 250.52451,730 251.85368,730 C 252.91229,730 254.84078,730.9065 256.13922,732.01444 L 258.5,734.02888 L 255.5,732.56555 C 253.85,731.76072 251.70061,730.86379 250.72357,730.57236 C 249.74653,730.28093 248.11525,728.10178 247.09851,725.72981 C 246.08176,723.35783 244.31656,720.98577 243.17584,720.45856 C 242.03512,719.93135 240.05679,717.93733 238.77954,716.0274 C 237.02784,713.408 235.45423,712.35644 232.37482,711.74746 C 227.07358,710.69909 223.9791,707.32852 223.28654,701.84829 C 222.71194,697.30155 220.63318,694 218.34501,694 C 216.95998,694 216.55187,691.35171 216.93586,684.85577 C 217.05434,682.85144 216.66724,680.91238 216.07564,680.54675 C 213.61018,679.02301 215.08788,674.78648 219.8624,669.69014 C 227.01612,662.05425 227.41112,660.98002 225.40516,654.61638 C 223.8374,649.64287 223.83425,648.93468 225.35996,644.45696 C 227.65157,637.73147 227.50503,637 223.86602,637 C 222.14233,637 218.97673,636.4741 216.83134,635.83132 C 213.56876,634.85383 212.35821,634.93562 209.4314,636.33132 C 203.25078,639.27865 194.87639,637.83585 190.57471,633.08255 C 187.83954,630.06023 184.98093,630.48146 175.8657,635.25 C 168.17762,639.27194 167.32702,639.49026 160.01419,639.31855 C 155.7187,639.21769 150.58194,639.72318 148.44824,640.45671 C 145.20447,641.57187 143.83603,641.54654 139.61561,640.29321 C 135.06464,638.94171 134.30545,638.96314 131.06072,640.53468 C 129.10232,641.4832 124.47856,642.48524 120.7857,642.76144 C 116.29501,643.09732 113.57242,643.81499 112.56472,644.92849 C 111.73604,645.84416 110.35462,649.93727 109.49489,654.02429 C 107.73595,662.386 105.81439,666 103.12743,666 C 100.25248,666 92.858736,671.46231 90.038312,675.66991 C 86.576843,680.83383 79.764809,684.30529 74.624756,683.52477 C 69.155229,682.69422 67,681.2946 67,678.57322 C 67,675.63569 63.695926,674.63283 57.144696,675.58193 C 50.883121,676.48907 50.704645,676.6815 53.108778,679.93326 C 54.771977,682.18286 54.978551,683.17156 54.120391,684.77505 C 53.291116,686.32456 53.383655,687.07352 54.521013,688.01744 C 56.685615,689.8139 56.455147,697.27812 54.171259,699.34501 C 53.165452,700.25526 52.030804,701 51.649819,701 C 50.252995,701 43,695.7019 43,694.68156 C 43,694.1026 42.179502,692.6999 41.17667,691.56445 C 40.173839,690.429 38.572126,686.06198 37.617308,681.85996 C 36.097157,675.16998 36.055138,673.80209 37.279407,670.85996 C 38.859911,667.06173 38.532661,665 36.349279,665 C 35.276737,665 35.052572,664.3761 35.540862,662.75 C 37.10772,657.53207 38.614044,655.58601 41.70077,654.79184 C 45.986751,653.68912 46.631085,652.30066 44.104769,649.61152 C 41.627616,646.97471 41.420054,644.7262 43.494847,643.00428 C 44.633965,642.05889 44.843549,640.52019 44.37556,636.53834 C 43.801607,631.6549 43.965515,631.10423 46.880713,628.12203 C 50.169676,624.75747 50.638844,623.51286 49,622.5 C 48.45,622.16008 48,620.93095 48,619.7686 C 48,618.60624 47.2125,615.94441 46.25,613.85341 C 44.973312,611.07985 43.87805,610.04462 42.200434,610.0258 C 39.814205,609.99903 33,604.16515 33,602.14898 C 33,601.51704 31.7051,601 30.122445,601 C 28.539789,601 26.708695,600.35393 26.053347,599.56428 C 25.397998,598.77463 23.430398,597.85727 21.680902,597.5257 C 10.854784,595.4739 6.3414607,592.8797 7.6527574,589.46252 C 7.9287915,588.74318 7.2198441,587.21984 6.0773188,586.07732 C 3.2510739,583.25107 3.465508,581.45504 6.9354867,578.88958 C 8.5500045,577.69591 11.33027,573.96994 13.113854,570.60964 C 22.956146,552.0666 32.980159,543.02771 50.316475,537.06314 C 58.310458,534.31281 66.631873,530.02076 69.134,527.35736 C 71.050585,525.31725 71.459474,523.3615 72.16882,512.84157 C 72.842438,502.8515 72.722163,500.14943 71.49431,497.68814 C 69.688773,494.06885 69.598329,491.80167 71.195758,490.20424 C 73.036971,488.36303 72.172407,481.27374 69.451932,475.90514 C 66.628031,470.33244 66.338091,466.79422 68.554596,464.95469 C 72.032027,462.06868 72.132833,460.28668 68.996102,457.14995 C 67.348246,455.50209 66,453.46421 66,452.62133 C 66,451.77845 64.9875,449.59518 63.75,447.76963 C 59.968443,442.1911 47,404.70664 47,399.35483 C 47,396.35991 46.172686,393.34771 41.338813,378.74277 C 39.273915,372.50394 38.902077,369.93931 39.439168,365.64058 C 40.003948,361.12024 39.75367,359.69682 37.816923,356.41428 C 34.630811,351.01422 34.212515,337.46203 37.067535,332.13518 C 39.573679,327.45926 39.538053,323.81711 36.970486,322.21364 C 35.494933,321.29214 35.00215,320.0378 35.165103,317.61817 C 35.346163,314.92969 34.631215,313.52008 31.444616,310.28276 C 29.275077,308.07869 26.504292,304.92501 25.287316,303.27458 C 23.824014,301.29009 21.897991,300.08285 19.600383,299.71 C 17.689546,299.39992 13.780733,297.29228 10.914133,295.02636 C 6.6107459,291.62473 5.1615218,291.00138 2.6010667,291.45071 C 0.18336456,291.87499 -0.059271297,291.7906 1.5,291.06774 C 4.7673573,289.55304 5.5818557,289.81144 10.973269,294.0731 C 13.807345,296.31331 17.681038,298.39854 19.581476,298.70693 C 21.939721,299.08963 23.90412,300.37042 25.768409,302.74084 C 27.270784,304.6511 30.278473,307.98073 32.452163,310.14004 C 35.69819,313.36459 36.363211,314.67654 36.174214,317.48288 C 36.002025,320.03965 36.454565,321.17291 37.972051,321.98504 C 40.593894,323.38821 40.604808,327.40118 38,332.26118 C 35.40408,337.10461 35.473251,337.84923 38.630606,339.04966 C 40.077439,339.59974 42.548878,340.96671 44.122693,342.08737 C 46.425525,343.72713 47.849231,343.9952 51.415119,343.46046 C 54.755853,342.95948 56.580707,343.22996 58.831864,344.55975 C 61.783557,346.30336 61.844406,346.29353 64.158832,343.69909 C 65.446474,342.25566 67.173372,340.94537 67.996383,340.78733 C 68.819394,340.6293 69.988085,339.86949 70.593475,339.09887 C 72.020314,337.2826 77.777432,339.10504 80.05511,342.09398 C 81.453564,343.92914 81.906879,344.00319 84.55511,342.82902 C 86.1748,342.11089 88.094643,340.95558 88.821429,340.26166 C 90.340986,338.81083 98.600438,338.54448 99.449885,339.91891 C 99.762241,340.42431 102.99798,342.50444 106.64043,344.54141 C 113.10756,348.15803 113.34003,348.20828 116.54187,346.68143 C 118.34522,345.82147 121.09854,343.48398 122.66035,341.48702 C 128.7271,333.72994 144,329.43519 144,335.48629 C 144,336.63215 144.80702,336.5409 148.23107,335.00791 C 150.55815,333.96604 152.60753,332.67741 152.78524,332.14428 C 152.96295,331.61115 151.05949,328.99809 148.55533,326.33748 C 143.70942,321.18881 143.23492,319.06249 146.60093,317.57957 C 147.75002,317.07334 149.13045,315.49834 149.66855,314.07957 C 150.48448,311.92827 151.85278,311.19218 157.9101,309.64592 L 165.1733,307.79185 L 168.02157,310.52067 C 170.12261,312.53359 171.4772,313.08316 173.18492,312.61551 C 175.95668,311.85648 182,303.9221 182,301.04204 C 182,297.15489 185.46817,295.00117 191.75,294.98733 C 196.13508,294.97767 198.89838,294.26554 203.39092,291.98733 C 206.63093,290.3443 209.80515,289 210.44475,289 C 211.84426,289 217.31513,294.63237 218.88001,297.68426 C 220.27014,300.39536 220.33863,304 219,304 C 218.45,304 218,304.75207 218,305.67126 C 218,306.59045 217.26375,308.15607 216.36388,309.15041 C 214.84247,310.83155 214.85999,310.9984 216.61388,311.53027 C 217.65125,311.84485 219.65811,312.68773 221.07357,313.40335 C 223.4139,314.58655 223.93815,314.44445 226.85807,311.83551 C 229.47898,309.49373 230.43015,309.15984 232.03449,310.01846 C 234.76806,311.48142 234.48706,310.53256 231.31594,307.59214 C 228.89652,305.34873 228.75233,304.83899 229.85352,302.42214 C 230.9192,300.08323 230.82515,299.56583 229.11676,298.36923 C 228.03964,297.61479 226.87043,295.68655 226.5185,294.08425 C 225.93965,291.44874 225.38389,291.10489 220.68932,290.47772 C 213.7319,289.54825 211.84029,287.83253 213.18145,283.66797 C 213.74257,281.92559 215.52824,279.32391 217.1496,277.88647 C 220.0407,275.32331 220.07423,275.18044 218.88933,270.47477 C 217.76257,265.99999 217.82668,265.55877 219.84057,263.92801 C 221.02826,262.96628 222,261.70407 222,261.12309 C 222,260.54211 224.025,257.78672 226.5,255 C 231.15708,249.75637 231.99919,247.07415 229.61074,245.09191 C 227.45332,243.30141 227.10693,239.269 228.62736,233.64415 C 229.47963,230.49116 229.78348,226.5257 229.41237,223.39942 C 228.9337,219.36709 229.24299,217.44402 230.88916,214.21727 C 232.0344,211.97241 233.40961,209.86488 233.94517,209.53389 C 234.48073,209.20289 236.32509,206.29382 238.04375,203.06929 C 240.95392,197.60926 241.59213,197.04824 247.33429,194.90254 C 250.72543,193.63536 254.63168,192.57639 256.01484,192.54929 C 257.398,192.52218 260.73765,191.0375 263.43628,189.25 C 266.13492,187.4625 268.63111,186 268.98339,186 C 269.33566,186 270.72101,184.5375 272.06194,182.75 C 273.94153,180.24446 274.5,178.26702 274.5,174.11735 C 274.5,169.78632 274.8885,168.51639 276.48852,167.61735 C 277.5822,167.00281 279.55539,165.7125 280.87338,164.75 C 283.84526,162.57969 286.8709,162.52085 289.80544,164.57628 C 291.89315,166.03857 292.18041,166.00677 293.77794,164.13645 C 295.78638,161.78507 298.06765,161.37788 303.24343,162.44692 C 305.30231,162.87218 308.12472,162.93453 309.51546,162.58548 C 311.70212,162.03666 311.89647,161.67506 310.95263,159.9115 C 309.77841,157.71743 311.14114,155 313.41565,155 C 314.05957,155 315.01697,153.54653 315.5432,151.77007 C 316.17711,149.63014 318.00343,147.53656 320.95506,145.56626 L 325.41012,142.59237 L 319.45506,140.74708 C 314.47153,139.20284 312.74179,139.08374 308.8525,140.01704 C 305.3919,140.84747 303.09343,140.83625 299.8525,139.97312 C 291.1757,137.66228 289.68398,133.56105 296,129.3813 C 298.2,127.92541 300,126.5902 300,126.41417 C 300,126.23813 299.49375,124.98301 298.875,123.625 C 298.09202,121.90655 298.05546,120.27967 298.75474,118.27372 C 299.50764,116.11394 299.41365,114.9186 298.37973,113.50464 C 296.38463,110.77617 296.52,110.42783 301.75,104.83263 L 306.5,99.750947 L 306.22972,92.747173 C 305.9122,84.519099 305.68186,84 302.34835,84 C 300.95487,84 296.37259,82.778013 292.16553,81.284474 C 282.2024,77.747489 276.93142,72.715795 274.52772,64.447356 C 273.12704,59.629191 271.76617,57.59006 266.66689,52.668714 C 259.04688,45.314584 247.85508,37.346717 243.93643,36.486038 C 241.29685,35.906289 241,35.444753 241,31.920545 C 241,28.425352 240.73387,28 238.54705,28 C 232.41183,28 227,21.925884 227,15.039838 C 227,11.757977 225.4482,11.154579 221.89649,13.055399 C 219.37299,14.405933 216.27028,13.426926 215.51309,11.041229 C 214.48644,7.8065602 211.72367,7.6087906 209.33914,10.599274 C 207.18421,13.301816 207.11508,13.314724 200.58837,12.233214 C 196.9701,11.633646 192.67975,10.196085 191.05426,9.0386339 C 188.50667,7.2245935 187.22949,7.022918 181.79941,7.5772265 C 176.40538,8.1278543 175.26875,7.9529285 173.89103,6.3601382 C 172.10015,4.2896995 170.67165,-0.32096853 172.09326,0.55763708 C 172.59197,0.86585538 173,1.9363762 173,2.9365723 C 173,6.2798035 175.55307,7.3088967 182.02947,6.5761756 C 187.22158,5.9887552 188.4528,6.1862368 191.02719,8.0193613 C 192.66757,9.1874127 196.92845,10.626745 200.49582,11.217877 C 206.88424,12.276473 207.01331,12.252798 209.06356,9.6463319 C 211.76359,6.2137977 212.93998,6.300628 216.11791,10.167019 C 218.60726,13.19565 218.88876,13.28872 221.84995,12.062153 C 226.02272,10.333733 228,11.25727 228,14.934688 C 228,21.772716 232.13963,26.38983 239,27.203492 C 241.09112,27.451506 241.55,28.100495 241.80569,31.171589 C 242.06145,34.243489 242.60828,35.016398 245.15366,35.903723 C 249.57163,37.443835 259.68028,44.908702 267.24562,52.217825 C 272.75314,57.538817 274.09267,59.510952 275.50934,64.384141 C 278.40866,74.357457 286.9868,80.419303 301.79593,82.959882 C 305.55363,83.604534 306.23015,83.433959 307.19564,81.598435 C 307.80271,80.444296 308.79454,79.169391 309.3997,78.765313 C 311.50705,77.3582 316.7475,78.013543 319.27287,80 C 320.67129,81.1 322.22854,82 322.73342,82 C 324.44106,82 327.78006,77.519005 328.45611,74.320032 C 329.5027,69.367757 336.63621,62.4018 342,61.094263 C 344.475,60.49093 348.16415,59.097902 350.19812,57.998647 C 352.23208,56.899391 354.46663,56 355.16377,56 C 355.86091,56 358.54874,58.0856 361.13672,60.634666 L 365.84214,65.269332 L 368.55593,63.134666 C 371.93616,60.475773 374.02285,60.443536 377.27287,63 C 380.61543,65.629257 391.71341,65.91042 392.68045,63.390346 C 393.47854,61.310552 393.38999,57.242705 392.46906,53.6801 C 391.81248,51.140129 392.36923,50.263424 398.07757,44.848474 C 401.56316,41.542025 405.64468,38.200861 407.14761,37.423667 C 409.19046,36.367269 410.08466,34.936488 410.6902,31.755293 C 411.4004,28.024251 412.02378,27.256789 415.7501,25.52588 C 418.08754,24.440115 420,23.046645 420,22.429281 C 420,20.491393 426.95288,14.048971 429.78919,13.358785 C 431.28013,12.995978 433.97816,11.41683 435.7848,9.8495677 C 437.59143,8.2823055 439.44934,7 439.91348,7 C 440.37761,7 441.32985,5.6178932 442.02955,3.9286516 C 443.29077,0.8838159 443.31858,0.87413192 445.25126,2.806817 C 446.82257,4.3781291 446.988,5.1539089 446.10397,6.8057232 C 444.65629,9.5107365 445.39679,11.13781 449.01566,13.20349 C 450.67105,14.148401 452,15.746829 452,16.792975 C 452,18.413304 453.09129,19.287779 458.25,21.801246 C 458.6625,22.002227 459,21.059267 459,19.705778 C 459,15.639931 461.1801,14.605043 466.74222,16.03057 C 470.19009,16.914234 472.8538,16.979872 476.21082,16.263889 C 484.31078,14.536337 492.03125,19.568749 487.78909,23.810913 C 486.8412,24.758797 487.2751,25.658369 489.78662,27.952292 C 492.52977,30.457769 492.85869,31.241483 492.05463,33.356301 C 490.93571,36.299298 492.11227,37 498.17282,37 C 501.30013,37 503.07087,36.239221 506.22248,33.541562 C 510.75393,29.662804 515.75415,28.483168 524.5663,29.21394 C 528.75455,29.561263 530.69938,30.295862 532.82685,32.334108 C 534.80948,34.233589 536.66597,35 539.28448,35 C 544.76756,35 551.09226,37.770738 554.75,41.775174 C 558.66121,46.057102 558.82243,48.268475 555.46797,51.62294 C 553.5888,53.502114 552.84606,55.437715 552.58735,59.129951 C 552.36396,62.318022 551.63592,64.545737 550.56038,65.33219 C 549.20305,66.324694 549.07984,67.079795 549.91625,69.279724 C 550.48509,70.775876 551.41573,72 551.98435,72 C 552.55297,72 554.43085,73.35 556.15742,75 C 557.88398,76.65 559.67074,78 560.12799,78 C 560.58524,78 561.88549,76.184616 563.01744,73.965812 C 564.39487,71.265836 566.30326,69.37723 568.78777,68.255328 C 570.82949,67.333365 573.175,66.059188 574,65.423824 C 577.01938,63.098485 580.86374,62.863737 582.88149,64.881493 C 584.7641,66.764096 584.84021,66.687578 587.83966,59.896723 C 590.36468,54.18 591.28916,53 593.24294,53 C 594.53932,53 596.12937,53.529367 596.77637,54.176371 C 597.6782,55.0782 598.38505,54.961509 599.80511,53.676371 C 600.82392,52.754367 602.16337,52 602.78169,52 C 604.9824,52 609,54.342299 609,55.625331 C 609,57.551452 613.27621,59.671368 613.8272,58.018398 C 614.88454,54.846385 618.09258,53 622.54651,53 C 626.55004,53 627.29647,53.357532 628.79651,55.993677 C 629.92539,57.977543 631.29054,58.989487 632.84362,58.993677 C 634.34298,58.997722 635.37565,59.720474 635.71025,61 C 636.15691,62.708032 637.07427,63 641.99419,63 C 648.30408,63 649.63691,63.886771 650.16151,68.433937 C 650.4223,70.694366 651.16129,71.543379 653.3807,72.132408 C 657.88803,73.328647 660.84121,76.758295 661.57449,81.648193 C 662.39966,87.150772 663.47709,87.820219 666.73528,84.854769 C 668.15825,83.559646 669.02989,83.011512 668.67226,83.636693 C 667.97139,84.861898 670.24969,87.297478 671.35034,86.499657 C 671.71682,86.234012 671.56292,86.552917 671.00833,87.208333 C 669.88943,88.53067 669.64071,93.307374 670.63878,94.305449 C 670.99011,94.65678 672.59964,93.83178 674.21551,92.472116 C 677.42226,89.773808 679.94431,89.34431 681.78333,91.183333 C 682.43417,91.834167 683.13797,92.171667 683.34735,91.933333 C 683.71095,91.51943 692.30935,76.131654 693.92693,73 C 695.2876,70.365747 699.90128,70.754443 712.10042,74.531087 C 718.64438,76.556986 724.67386,77.955392 725.49927,77.638655 C 727.29087,76.951152 727.63723,67.511863 725.91002,66.444389 C 725.17999,65.993208 725.05152,63.465818 725.52097,58.791161 L 726.22191,51.811577 L 722.57623,48.078065 C 720.48844,45.939971 719.16424,43.735581 719.47741,42.919469 C 719.77818,42.135672 722.18402,40.020576 724.82372,38.219256 C 730.59263,34.282577 737,26.87571 737,24.143572 C 737,23.038022 735.26246,20.791901 733.05439,19.043078 C 727.6942,14.797728 727.03719,12.342848 730.51829,9.5671119 C 733.19737,7.4308908 733.21941,7.3249675 731.62588,4.2434221 C 730.73165,2.5141659 730.01989,0.73947289 730.0442,0.29965993 C 730.0685,-0.14015303 731.00487,1.2374226 732.125,3.3609391 L 734.16161,7.2218781 L 731.54971,9.9481156 C 728.40204,13.233571 728.81608,14.71385 734.06183,18.929449 C 736.49696,20.886372 737.99985,22.934995 737.99962,24.297123 C 737.99922,26.602193 730.49496,35.041792 723.45579,40.653724 L 719.5,43.807447 L 723.36095,47.809512 L 727.22191,51.811577 L 726.52097,58.791161 C 726.05152,63.465818 726.17999,65.993208 726.91002,66.444389 C 727.50951,66.814894 728,69.566476 728,72.559017 C 728,77.494667 728.20389,78 730.19528,78 C 731.40269,78 733.62352,76.81875 735.13047,75.375 C 738.81679,71.84328 741.69265,72.067534 747.9546,76.375 C 755.43786,81.522573 757.19354,81.256414 759.5,74.624735 C 760.76741,70.980606 766.50445,68.496852 771.49278,69.432669 C 774.45661,69.988685 775.52732,71.031518 778.73539,76.486672 C 780.87207,80.11999 783.36486,83.0945 784.5,83.365271 C 785.6,83.62766 790.77684,84.148032 796.00408,84.521653 C 804.85264,85.15411 805.63926,85.056089 807.40907,83.100482 C 809.81237,80.444857 813.92168,80.409234 819,83 C 821.15618,84.1 823.107,85 823.33516,85 C 823.56332,85 824.02,83.65 824.35,82 C 825.05481,78.475948 826.12944,78.298844 830.48269,80.989302 C 832.27242,82.095416 837.20848,83.465689 841.60072,84.07572 C 848.7953,85.074961 852.46319,86.029781 848.91667,85.980191 C 843.53735,85.904975 833.12442,83.621981 830.35558,81.910745 C 826.56628,79.568827 825,80.050876 825,83.559017 C 825,86.520831 824.07456,86.588848 819,84 C 813.92168,81.409234 809.81237,81.444857 807.40907,84.100482 C 805.63926,86.056089 804.85264,86.15411 796.00408,85.521653 C 782.40656,84.549761 782.54898,84.61515 778.33289,77.40787 C 774.10115,70.173808 771.03707,68.772327 764.56756,71.111732 C 761.684,72.15444 760.76736,73.150251 759.97192,76.104295 C 758.34295,82.153804 755.36025,82.469193 747.9546,77.375 C 741.67869,73.057936 738.81728,72.842815 735.09574,76.408276 C 731.19403,80.14635 725.9683,79.959597 712.16845,75.58892 C 697.70719,71.008757 695.46604,70.967753 693.64403,75.25 C 692.88349,77.0375 690.42631,81.640934 688.18364,85.479854 C 684.41478,91.931247 684.22665,92.592964 685.69885,94.219723 C 686.57488,95.187731 687.51516,98.305936 687.78835,101.14907 C 688.1836,105.26257 687.93547,106.57402 686.57351,107.56991 C 684.98765,108.72952 685.0139,108.86963 686.93098,109.4781 C 690.77715,110.69882 688.98076,117 684.78658,117 C 683.06936,117 683.05921,117.19893 684.59529,120.75 C 687.44826,127.34541 687.4184,127.81931 683.96589,130.74015 C 677.41601,136.28137 677,136.89596 677,141.03138 C 677,143.5857 677.51871,145.26182 678.41573,145.60604 C 679.19439,145.90483 681.10689,148.02821 682.66573,150.32465 C 684.22458,152.62109 686.5125,155.32016 687.75,156.32258 C 689.03855,157.36635 690,159.2556 690,160.74384 C 690,162.17311 690.76517,164.18803 691.70039,165.22143 C 693.30218,166.99138 693.29656,167.29384 691.60356,170.43757 C 689.917,173.56931 689.90914,173.93169 691.47583,176.32276 C 693.70111,179.71898 693.11465,184.23026 690.28652,185.47141 C 688.71565,186.16079 688.22278,187.03945 688.58884,188.49794 C 689.32691,191.43864 685.08792,195.04439 680.10734,195.71243 C 676.0207,196.26056 676.01847,196.26328 676.61024,199.96401 C 677.06191,202.78862 676.5853,204.88485 674.60119,208.80031 C 671.51199,214.89654 671.49825,215 673.77749,215 C 676.50323,215 680,217.87858 680,220.12245 C 680,221.22742 680.53492,223.1144 681.18872,224.31574 L 682.37743,226.5 L 682.93872,224.21621 L 683.5,221.93241 L 686.82717,224.71621 C 688.89585,226.44705 690.42279,228.82386 690.86407,231 L 691.57381,234.5 L 699.50372,235 C 706.78355,235.45901 707.55417,235.71552 708.90408,238.12899 C 710.48919,240.96296 709.7837,242.88322 702.65952,255.12601 C 701.17897,257.67031 700.22668,260.42716 700.54333,261.25232 C 700.86778,262.09782 702.89892,262.99136 705.19711,263.29961 C 710.39187,263.99638 712.19818,265.84263 712.55254,270.81774 C 712.71137,273.04751 714.00404,276.56009 715.49485,278.81286 C 717.41762,281.71836 718.08412,283.89268 717.90191,286.66546 C 717.76332,288.77446 717.7287,292.16711 717.82497,294.20469 C 717.98392,297.56912 718.30873,297.96729 721.36147,298.53999 C 723.73245,298.98479 726.71952,301.1826 731.49888,305.99887 L 738.27482,312.82713 L 743.44585,312.29343 C 749.15221,311.70449 752.55928,313.6625 751.52092,316.93409 C 751.07357,318.34357 751.48753,318.58206 753.79386,318.24356 C 755.56422,317.98373 757.10341,318.41967 757.92933,319.41484 C 758.65289,320.28668 760.39944,321 761.81057,321 C 764.95128,321 770.98519,324.94422 770.98943,327 C 770.99113,327.825 770.05973,330.03007 768.91965,331.90015 C 766.90377,335.20681 766.89584,335.3914 768.63145,338.61423 C 770.3682,341.83917 770.36139,341.98954 768.37795,344.21408 C 767.25696,345.47134 765.79527,348.4125 765.12975,350.75 C 764.46423,353.0875 763.48778,355 762.95986,355 C 762.43194,355 762,355.87344 762,356.94098 C 762,358.00852 761.55,359.16008 761,359.5 C 760.45,359.83992 760,361.21648 760,362.55902 C 760,364.43946 760.52816,365 762.3,365 C 763.565,365 765.08695,365.48695 765.6821,366.0821 C 766.4306,366.8306 767.34007,366.84907 768.6321,366.14202 C 771.49507,364.5753 784.49486,361 787.32851,361 C 788.71343,361 791.11858,362.05814 792.67327,363.35143 C 796.42805,366.47487 799.43729,368 801.84536,368 C 802.93263,368 804.95816,369.35 806.34655,371 C 808.36277,373.39614 809.66188,374 812.80058,374 C 820.93148,374 825.13327,381.3101 819.00632,384.79651 C 815.81045,386.61505 815.65755,387.22238 816.62269,394.26388 C 817.18187,398.34352 817.64086,398.98524 821.12269,400.55533 C 823.25521,401.51696 825,402.91041 825,403.65187 C 825,404.39334 825.77167,405 826.71483,405 C 827.65799,405 829.34549,405.8787 830.46483,406.95266 C 835.82113,412.09181 837.13548,412.89335 840.68581,413.18581 C 844.19148,413.47459 844.49546,413.73981 844.4439,416.46475 C 844.40743,418.39226 845.2168,420.14258 846.75733,421.46768 C 849.7551,424.04626 848.87322,426.87536 844.81891,427.68622 C 842.59298,428.1314 842.06012,428.65916 842.59788,429.88596 C 842.98701,430.77368 843.34918,432.625 843.4027,434 C 843.496,436.39714 843.23699,436.5079 837.1079,436.6921 C 833.59225,436.79775 830.23975,437.36025 829.6579,437.9421 C 829.07606,438.52394 827.6274,439 826.43867,439 C 824.73193,439 824.36846,439.47665 824.71057,441.26626 C 825.03522,442.96457 823.93536,444.71052 820.32189,448.23302 C 817.66985,450.81829 814.91976,453.62347 814.21057,454.46676 C 813.50139,455.31004 811.81389,456 810.46057,456 C 808.69019,456 808,456.54536 808,457.94424 C 808,460.76336 804.17107,464.4162 799,466.53031 C 796.525,467.54218 793.57837,469.17988 792.45193,470.16965 C 789.4479,472.80919 785.0484,473.35136 780.1969,471.67988 C 776.97487,470.5698 775.22881,470.46482 773.13466,471.25527 C 771.60459,471.83281 769.12175,471.99639 767.61725,471.61878 C 763.34985,470.54773 756.50416,463.62609 755.10998,458.97275 C 754.43791,456.72959 753.12573,454.67006 752.19402,454.39602 C 751.26231,454.12198 749.29015,453.28257 747.81143,452.53065 C 745.33649,451.27216 745.00092,451.34966 743.58807,453.50592 C 741.45209,456.76585 739.0313,457.27515 734.04101,455.51447 C 727.89238,453.34511 726.41324,453.58814 725,457 C 724.00975,459.39067 724.00983,460.60952 725.00037,463.0009 C 726.38527,466.34435 725.40247,468.4201 721.90969,469.52866 C 720.85936,469.86202 720,471.00445 720,472.06739 C 720,473.13032 719.08422,474.91578 717.96494,476.03506 L 715.92988,478.07012 L 718.71494,480.44081 C 720.24672,481.74469 723.05406,485.81348 724.95348,489.48255 C 728.38189,496.10518 731.66099,499.41984 735.5,500.14345 C 736.72602,500.37454 737.63542,501.47691 737.84993,502.99201 C 738.04239,504.35138 739.50489,506.94994 741.09993,508.76659 C 745.1211,513.34646 745.05703,517.93278 740.92327,521.41111 C 739.23108,522.835 737.20608,524 736.42327,524 C 734.43187,524 734.63073,524.77244 737.5,528.18237 C 738.875,529.81646 740,532.40913 740,533.94384 C 740,536.09145 740.92142,537.344 744,539.3813 C 748.76255,542.53301 749.29181,545.8387 745.51012,548.81338 C 743.3515,550.51135 743.21846,550.93641 744.51012,552.0084 C 746.47025,553.63516 746.39643,555.90447 744.30833,558.21179 C 742.71945,559.96749 742.71945,560.25505 744.30833,562.94482 C 746.24429,566.22213 746.47858,570.61104 744.93439,574.67256 C 744.0063,577.11363 744.16762,577.69722 746.18439,579.19474 C 753.47869,584.611 754,585.20777 754,588.1418 C 754,589.78613 753.55242,591.9678 753.00537,592.98996 C 752.15671,594.5757 752.5288,595.01942 755.54079,596.01346 C 761.23304,597.89207 762.86748,601.53089 760.54398,607.15224 C 759.98712,608.49947 760.84304,609.01661 765.18053,609.95364 C 775.05858,612.08758 791.43216,614.06399 794.19877,613.45634 C 797.61899,612.70514 805.63007,603.96076 806.49159,600.0383 C 806.92186,598.07928 806.56853,596.27113 805.40991,594.50284 C 803.71695,591.91906 803.74006,591.83031 806.84461,588.99474 C 810.292,585.84604 810.87582,582.5402 808.5318,579.44113 C 806.39014,576.6096 806.67414,575.11989 809.49036,574.41306 C 811.09898,574.00933 813.4113,574.53368 816.02116,575.89401 C 818.37034,577.11848 821.93231,578 824.53079,578 C 829.14224,578 830.90471,579.10578 834.11726,584.01461 C 835.69959,586.43244 835.83999,586.45625 840.61726,585.11714 C 848.58406,582.88397 850.96355,582.78497 844.5,584.95559 C 837.01399,587.46959 834.30118,587.52429 833.55595,585.17629 C 832.28696,581.17805 829.07839,579 824.45742,579 C 821.90327,579 818.39594,578.14416 816.26118,577 C 810.05111,573.6716 806.39033,574.86379 809.44207,579.22075 C 811.8457,582.65241 811.33808,585.88177 807.8885,589.10415 C 804.85493,591.93793 804.819,592.07481 806.4538,594.56983 C 807.58146,596.29086 807.91884,598.09303 807.484,600.07283 C 806.65696,603.83834 797.79144,613.58454 794.42457,614.42958 C 791.59876,615.13881 779.90651,613.80348 767.56154,611.36165 C 760.19303,609.90417 759.41651,609.91346 756.74568,611.49116 C 754.23034,612.97701 753.02719,613.04588 747.18413,612.03848 C 743.50786,611.40466 737.125,609.83428 733,608.54876 C 724.97851,606.04893 724,606.09277 724,608.95203 C 724,611.0216 721.75148,612.2256 719.5,611.36163 C 718.43014,610.95108 717.99561,611.46191 717.98469,613.14301 C 717.95711,617.38826 714.52434,620 708.97212,620 C 706.5863,620 705.67594,619.4768 705.25395,617.86311 C 704.71636,615.80736 704.3326,615.75171 695.14659,616.39743 C 689.89489,616.76658 685.42217,617.24449 685.20722,617.45944 C 684.99227,617.6744 685.39221,619.44265 686.09598,621.38889 C 687.22241,624.50397 687.16105,625.16456 685.58335,626.9079 C 684.59763,627.99711 681.83365,629.6979 679.44118,630.68744 C 675.43747,632.34339 675.06769,632.80484 674.79561,636.48467 C 674.56572,639.59392 674.05537,640.5489 672.5,640.78031 C 666.626,641.65425 666.06487,642.04539 664.99729,646.01006 C 664.40638,648.20453 663.56819,650 663.13465,650 C 662.7011,650 662.53865,651.31001 662.77365,652.91113 C 663.11032,655.20504 662.64957,656.18351 660.60046,657.52614 C 659.03233,658.55361 658,660.1543 658,661.55831 C 658,662.83886 657.08016,664.53087 655.95591,665.31833 C 654.83167,666.10578 653.01876,668.4938 651.92723,670.62503 L 649.94263,674.5 L 653.10588,687.5 C 654.84567,694.65 657.10858,702.42454 658.13456,704.77675 C 660.36982,709.90137 660.51468,713.92452 658.5588,716.55887 C 657.75692,717.63892 657.36589,719.51597 657.67732,720.79029 C 658.33697,723.48947 655.60512,727 652.84501,727 C 651.70475,727 651,727.7194 651,728.88337 C 651,729.9812 650.08497,731.00602 648.80616,731.34044 C 646.66037,731.90157 646.65294,731.95902 648.4667,733.9632 C 650.97779,736.73793 650.05101,737.13748 647.27886,734.4753 z M 650.41821,722.39301 C 651.33392,722.04162 652,720.61936 652,719.01546 C 652,717.49164 652.675,715.68469 653.5,715 C 655.4935,713.34554 655.39111,710.93752 653.10785,705.77675 C 652.06717,703.42454 650.05475,696.325 648.63581,690 C 644.76128,672.72912 644.6268,671.55461 646.3593,670.11677 C 647.19098,669.42654 648.17312,667.48828 648.54183,665.80953 C 648.93436,664.02236 649.9972,662.55199 651.10611,662.262 C 652.49268,661.8994 653,660.8627 653,658.39184 C 653,656.13774 653.64261,654.61563 654.93501,653.80852 C 656.38906,652.90045 656.72794,651.88972 656.29843,649.74214 C 655.85076,647.50381 656.13586,646.77079 657.61342,646.3611 C 658.65104,646.0734 660.4,643.96538 661.5,641.6766 C 662.98195,638.59311 664.3282,637.2854 666.69736,636.62803 C 669.45097,635.864 669.93672,635.23841 670.19736,632.12044 C 670.4747,628.80268 670.8774,628.37459 675.01415,627 C 681.93545,624.70013 682.23767,624.36029 680.44481,620.89327 C 678.7078,617.53428 679.27104,614.46049 681.87933,613.06458 C 682.83847,612.55127 688.59776,611.81651 694.67775,611.43178 C 705.22691,610.76427 705.83337,610.83337 707.94346,612.94346 C 710.71264,615.71264 713,614.93816 713,611.23138 C 713,607.80116 714.6182,606 717.7,606 C 718.965,606 720,605.56037 720,605.02305 C 720,604.48573 721.10975,603.31897 722.46611,602.43025 C 724.76983,600.92079 725.37603,600.96207 731.67168,603.05713 C 735.37838,604.29064 741.80613,605.90121 745.95557,606.63617 C 753.22981,607.9246 753.56267,607.89735 755.25,605.87544 C 757.76405,602.86288 757.47946,602.17565 752.97083,600.37165 C 747.70869,598.26616 746.50879,596.00041 748.19151,591.34694 C 749.40445,587.99262 749.33774,587.65399 747.16375,586.12989 C 745.88505,585.23345 743.42011,583.30612 741.6861,581.84693 C 738.56622,579.22152 738.54621,579.14576 739.76667,574.58257 C 741.45549,568.26828 741.32563,566.68445 739,565.23207 C 736.61873,563.74494 736.48388,561.89874 738.47526,558.04784 C 739.77561,555.53324 739.77561,555.12787 738.47526,554.62888 C 735.88454,553.63473 736.7652,549.32871 740.09168,546.72535 L 743.18337,544.30574 L 739.64975,542.22086 C 736.9242,540.61274 735.95551,539.26288 735.41373,536.31799 C 735.02741,534.21809 733.65128,531.22797 732.35567,529.67327 C 729.02642,525.67828 729.20372,521.2714 732.75,519.87174 C 739.89967,517.04988 740.46877,515.43686 736.07877,510.43693 C 734.38545,508.50834 733,506.27107 733,505.4652 C 733,504.65934 732.41328,504 731.69617,504 C 729.62087,504 723.95074,497.57352 720.01893,490.76514 C 717.37913,486.194 715.24237,483.85883 712.11632,482.12868 L 707.83179,479.75736 L 708.48533,474.12641 C 709.31705,466.96028 707.98191,463.2512 704.28537,462.45872 C 697.92414,461.09498 697,460.27842 697,456.02144 C 697,453.80965 696.5513,452 696.00288,452 C 694.20063,452 687,444.80654 687,443.00608 C 687,442.03743 687.67005,440.6888 688.48899,440.00914 C 690.5063,438.33492 689.62704,437.26714 685.23181,436.05356 C 682.0702,435.1806 680.88274,435.37387 677.01794,437.39044 C 674.53308,438.68699 670.61341,440.06473 668.30757,440.45207 C 666.00173,440.83942 663.58413,441.79617 662.93512,442.57817 C 661.29313,444.55665 660.2473,444.35454 659.47103,441.90871 C 659.10596,440.7585 657.30641,439.19032 655.47202,438.42386 C 653.63763,437.6574 651.85443,436.57348 651.50936,436.01515 C 650.46068,434.31834 648.17335,434.87847 647.50104,436.99673 C 646.68901,439.55521 639.66216,443.64433 634.5,444.56241 C 632.3,444.95367 628.34584,446.11219 625.71298,447.1369 C 618.47422,449.95421 616.52252,449.63264 614.26105,445.25 C 611.6108,440.11392 607.18825,437.36836 600.27835,436.56942 C 597.10026,436.20196 592.34099,435.15189 589.7022,434.23592 C 583.85857,432.20751 581.90446,433.10035 580.55746,438.41419 C 579.90107,441.0036 580.01234,443.85803 580.92397,447.81623 C 583.40576,458.59185 583.40191,459.60508 580.87251,461.37674 C 579.59787,462.26953 577.50053,463 576.21175,463 C 574.92297,463 573.07279,463.42586 572.10023,463.94636 C 570.41573,464.84787 570.4288,465.45874 572.37604,476.83759 C 575.20138,493.34767 573.24186,497.4728 565.41111,491.5 C 561.70001,488.6694 558.28642,488.31613 555.44113,490.4682 C 552.56493,492.64365 549.87898,492.33087 542.83979,489.00079 C 532.61218,484.16234 529.55084,484.98857 525.1037,493.78765 C 522.34744,499.24116 521.97662,499.55645 516.91991,500.74582 C 510.97772,502.14345 510.4699,502.65995 509.58268,508.2083 C 508.62309,514.20924 506.45532,516.83765 502.17148,517.19432 C 498.71282,517.48228 498.49701,517.70265 498.44848,520.99615 C 498.35851,527.10053 495.85391,527.59358 476.25,525.36608 C 471.03366,524.77338 471,524.78736 471,527.54692 C 471,529.07447 469.92129,532.16496 468.60288,534.41467 C 467.28446,536.66438 465.88051,541.10818 465.483,544.28978 C 465.08548,547.47139 463.98895,551.02703 463.04625,552.19121 C 460.42605,555.42702 452.13047,555.73885 440.45322,553.04049 C 429.52125,550.51434 428.43602,550.81227 423.37365,557.72943 C 418.44375,564.46557 417.46771,564.72871 411.84563,560.83727 C 410.13069,559.65024 407.41311,559 404.16706,559 C 398.52584,559 396,557.27691 396,553.42857 C 396,552.09286 395.05072,550.05072 393.89048,548.89048 C 392.07912,547.07912 390.87924,546.83837 385.40125,547.18719 C 376.21068,547.7724 373.59257,549.95755 373.19952,557.37114 C 372.91552,562.72777 372.68897,563.17125 369.06934,565.45623 C 363.74774,568.81561 361.05688,577.14246 364.39707,579.91457 C 365.16545,580.55228 369.10295,581.45453 373.14707,581.91958 C 386.32514,583.43497 389.188,586.45932 387.13259,596.69399 C 384.83968,608.1112 385.62389,612.42695 391.14665,618.7848 C 392.71599,620.59143 394,622.56874 394,623.17882 C 394,623.78889 392.32683,625.73439 390.28185,627.50213 C 386.95566,630.3774 386.58323,631.1792 386.74895,635.10811 C 386.85084,637.52365 386.51809,641.02478 386.0095,642.88839 C 385.17773,645.93624 385.38204,646.55446 388.0424,649.0396 C 389.66908,650.55915 391,652.31922 391,652.95087 C 391,655.28127 387.961,659.8776 386.01097,660.49652 C 383.58724,661.26578 383.35428,664.85063 385.46301,668.92848 C 386.98468,671.87106 388.81991,673 392.08179,673 C 393.1368,673 394,673.45 394,674 C 394,674.55 395.8835,675 398.18555,675 C 402.77165,675 407,677.94517 407,681.13952 C 407,682.12451 405.58798,684.53861 403.86218,686.50419 C 400.84911,689.93589 400.79941,690.13308 402.61218,691.46433 C 404.32232,692.72022 404.64128,692.55184 406.00105,689.67535 C 406.82663,687.92891 408.43261,686.09089 409.5699,685.59087 C 411.55417,684.71847 411.57611,684.51045 410.11291,680.44148 C 408.84002,676.90173 408.80758,675.93678 409.9165,674.60061 C 412.70367,671.24228 422.16769,673.7654 423.56391,678.23903 C 424.41776,680.97485 425.77889,681.96439 428.71607,681.98469 C 432.96184,682.01402 437.65035,678.9201 439.41245,674.92622 C 441.00413,671.3186 446.1234,666 448.00415,666 C 449.44345,666 453,671.15483 453,673.24095 C 453,675.48392 458.59878,683 460.26958,683 C 460.87541,683 462.38774,682.04491 463.6303,680.87759 C 465.63718,678.99223 466.60354,678.83164 472.2825,679.4398 C 482.48033,680.5319 488.02513,685.27031 489.53028,694.17924 C 489.91519,696.4575 490.95898,698.44286 492.0901,699.04822 C 494.3947,700.2816 494.40245,700.20745 492.45591,695.54872 C 490.39812,690.62374 491.10284,688.9596 497.75819,683.02778 C 502.79694,678.53682 503.89042,678 507.99962,678 C 510.52983,678 513.14,678.54 513.8,679.2 C 514.73333,680.13333 515,680.01189 515,678.65349 C 515,677.69291 516.35116,676.14041 518.00257,675.20349 C 519.65399,674.26657 521.26749,672.68672 521.58814,671.69272 C 522.51305,668.82551 526.81781,667.65061 529.63498,669.49648 C 530.93574,670.34878 532,671.73308 532,672.57271 C 532,675.50398 535.02828,680 537.00263,680 C 538.07582,680 539.65991,681.07751 540.52282,682.39448 C 541.96361,684.59341 541.93278,685.24123 540.14522,690.32716 C 538.10859,696.12172 538.22692,697 541.04422,697 C 544.04538,697 545.23903,699.47477 544.14644,703.43179 C 543.03039,707.47383 543.82171,707.95947 546.57203,704.9204 C 548.42097,702.87735 550.69987,702.77666 555.25,704.53696 C 556.73566,705.11171 557,704.61703 557,701.26198 C 557,696.49209 559.74199,693.43776 563.20995,694.34465 C 564.95289,694.80044 566.42381,694.02583 569.49284,691.036 C 574.28865,686.36393 578.00961,685.15246 580.35624,687.4991 C 581.26031,688.40317 582,690.19891 582,691.48964 C 582,697.52714 585.20174,698.69092 590.21242,694.47472 C 592.57134,692.48982 593.89988,692.07819 596.4209,692.55114 C 598.68831,692.97651 600.01168,692.69085 600.93658,691.57642 C 602.57178,689.60612 604.30175,689.58756 608.00122,691.50063 C 610.27705,692.67751 611.43656,692.75821 613.37568,691.87469 C 616.63551,690.38941 622.99892,693.39533 630.08837,699.76936 L 635.21545,704.37905 L 634.55807,710.18952 C 634.05669,714.62111 634.20911,716.00607 635.20034,716.0256 C 635.91515,716.03967 638.95415,717.61467 641.95366,719.5256 C 647.79298,723.24569 648.00712,723.31823 650.41821,722.39301 z M 49.090855,689.87002 C 46.668325,687.61309 46.650054,687.5224 48.079704,684.85107 C 48.914276,683.29166 48.800758,682.43732 47.579704,681.08807 C 41.552807,674.42843 53.455393,668.18862 66.747893,671.03935 C 72.274507,672.2246 73.208956,672.97433 73.411822,676.38598 C 73.5193,678.19346 74.094671,678.46622 77.379749,678.26705 C 80.718884,678.06459 82.156724,677.06736 88.360985,670.65086 C 92.774985,666.08586 96.944571,662.7534 99.284499,661.92045 C 101.64449,661.08036 103.2294,659.80667 103.49514,658.53664 C 103.72951,657.41649 104.44104,653.81545 105.07631,650.53433 C 105.94918,646.026 107.03366,643.76634 109.51567,641.28433 C 112.4717,638.3283 113.38476,637.9978 118.65,637.97804 C 122.35902,637.96411 126.14453,637.21015 128.99351,635.91791 C 133.08158,634.06364 134.0424,633.99013 139.64214,635.10318 C 144.36238,636.04141 146.46197,636.05473 148.64863,635.16033 C 150.21688,634.51887 154.93386,634.10695 159.13079,634.24494 C 166.38999,634.48363 167.15671,634.28898 174.87565,630.24792 C 184.85739,625.02222 188.54605,624.78452 193.40831,629.05364 C 197.91653,633.01191 202.84434,633.82488 208.06345,631.47139 C 211.51478,629.91505 212.74499,629.82847 217.10544,630.83498 C 223.84455,632.39055 229.07653,632.25669 231.44113,630.4682 C 234.18235,628.39484 237.16173,628.63981 241.89371,631.32762 C 245.51902,633.38684 246.54608,633.54165 250.80037,632.67017 C 256.55286,631.49179 260.2739,632.26964 263.26329,635.27544 C 265.81968,637.84585 277.05694,640.08691 283.5,639.31125 C 287.25243,638.85951 287.73154,639.10914 291.24107,643.34463 C 293.29867,645.82784 295.84005,648.13185 296.8886,648.46464 C 297.93714,648.79744 301.20366,648.15426 304.14752,647.03537 C 311.81176,644.12236 317.31496,644.31366 319.8862,647.58246 C 321.00346,649.00282 322.17175,650.96578 322.48242,651.9446 C 322.86721,653.15697 325.13673,654.23991 329.60202,655.34183 C 336.04107,656.93082 336.2569,656.91775 341.82839,654.60158 C 349.34325,651.47751 358.27474,651.96347 360.6752,655.62704 C 362.1565,657.8878 362.12749,659.4942 360.48749,666.02263 C 359.93307,668.2296 360.26935,668.66757 363.1748,669.52263 C 367.01849,670.65382 368.12807,673.70197 365.41761,675.6839 C 363.75616,676.89879 363.81342,677 366.16218,677 C 367.56162,677 371.3758,677.27898 374.63813,677.61997 C 380.3304,678.21493 380.6178,678.13425 381.76339,675.61997 C 382.41994,674.17898 383.64177,673 384.47856,673 C 386.34133,673 386.34547,672.2283 384.5,669 C 382.22954,665.02825 382.60884,661.13535 385.38973,659.86829 C 387.60907,658.85709 390,655.24149 390,652.89658 C 390,652.34145 388.65877,650.66223 387.01949,649.16498 C 384.21745,646.60571 384.1028,646.21158 385.10477,642.58272 C 385.69096,640.45972 385.88166,637.18271 385.52854,635.30046 C 384.95531,632.24486 385.32117,631.44353 388.94326,627.82145 C 391.17447,625.59024 393,623.38331 393,622.91715 C 393,622.45099 391.71599,620.59143 390.14665,618.7848 C 388.57731,616.97816 386.77731,614.51708 386.14665,613.31574 C 384.6996,610.55924 384.67742,603.60256 386.09463,596.99434 C 388.1908,587.22024 385.54032,584.28848 373.37435,582.92412 C 362.43333,581.69714 359.99753,578.72835 363.34956,570.7058 L 364.69913,567.47584 L 360.79963,567.84772 C 356.04481,568.30116 353,565.96576 353,561.86534 C 353,559.57664 352.24099,558.65343 349,557 C 345.49423,555.21149 345,554.53074 345,551.4904 C 345,549.58248 344.12003,545.70555 343.0445,542.87501 C 341.33061,538.36441 341.25824,537.40129 342.45877,535.07972 C 344.32405,531.47268 345.37259,525.41188 344.40282,523.84275 C 343.96534,523.13489 343.73014,520.8557 343.88017,518.77787 C 344.19182,514.46143 343.06624,514.01614 339.31079,516.97018 L 336.80611,518.94035 L 333.32614,516.57565 C 330.68485,514.78084 328.95095,514.33102 326.13159,514.70918 C 321.77032,515.29414 320.31382,514.00838 319.8317,509.14777 C 319.54473,506.25457 318.75826,505.39432 314,502.76902 L 308.5,499.73449 L 303.43854,502.89952 C 296.75469,507.07906 292.21938,507.80798 289.01959,505.21695 L 286.58539,503.24585 L 288.41562,499.18713 C 290.15077,495.33925 290.17481,492.58949 288.51859,487.40956 C 288.0122,485.82582 289.08806,483.77671 292.95722,478.95565 C 300.49732,469.56051 300.71214,466.05408 293.75,466.01531 C 292.20761,466.00672 290.23152,465.08688 289.25,463.92063 C 288.2875,462.77698 285.8125,460.14611 283.75,458.07424 C 278.82791,453.1298 278.96652,450.98076 284.5,446.44649 C 289.35362,442.46931 289.64016,441.4222 287.77907,434.46378 L 286.55814,429.89886 L 282.77907,430.53733 C 280.27618,430.96019 279,430.79753 279,430.05567 C 279,429.43961 277.9875,428.52858 276.75,428.03116 C 275.22738,427.41915 275.02616,427.10628 276.12756,427.06339 C 277.02271,427.02852 278.32253,427.6837 279.01604,428.51933 C 280.60932,430.43912 286.61902,429.54379 289.5,426.95743 C 290.6,425.96992 293.19851,424.84837 295.27446,424.4651 C 301.90843,423.2403 304.05648,416.69681 299.79103,410.70653 C 298.56084,408.97889 297.54154,405.98903 297.4906,403.95883 C 297.37907,399.51341 291.09685,390.3667 282.08673,381.5313 C 275.77721,375.34414 275.08703,373.5315 277.06239,368.3359 C 277.80183,366.39102 277.8059,365.4353 277.07577,365.19192 C 276.49881,364.9996 275.03091,364.03586 273.81375,363.05027 C 271.68377,361.32551 271.6647,361.16068 273.3054,358.65666 C 274.24296,357.22576 277.51463,354.45287 280.57578,352.49467 C 284.76119,349.8173 286.63285,347.82358 288.12265,344.45563 C 289.21228,341.99235 289.8196,339.51713 289.47227,338.95513 C 289.12493,338.39312 287.18908,338.06081 285.17037,338.21665 C 281.59921,338.49234 281.49168,338.3998 281.1922,334.79302 L 280.8844,331.08605 L 274.6922,331.66105 C 266.31496,332.43896 263.92595,330.61003 263.29583,322.93643 C 262.63617,314.90309 262.12562,313.97069 260.28886,317.44484 L 258.73195,320.38969 L 256.39784,317.67613 C 254.43703,315.39655 254.22782,314.531 255.08971,312.26405 C 256.74459,307.91138 257.94794,306.90177 260.10501,308.0562 C 262.48452,309.32968 265.08593,308.04399 267.45957,304.42137 C 269.14581,301.84784 269.42144,301.78311 275.95323,302.42673 C 283.95411,303.21512 287.77799,301.90118 288.6075,298.07856 C 289.6301,293.36608 289.9331,292.96338 292.90313,292.36937 C 295.45331,291.85934 296.00999,291.12682 297.00756,286.96849 C 297.78075,283.74545 299.492,280.72897 302.19247,277.82884 C 307.5127,272.11526 309.29164,267.05664 308.4816,259.94494 C 307.87862,254.65099 307.97207,254.33375 310.46989,253.19567 C 312.81744,252.12606 313.02586,251.61013 312.46754,248.25073 C 311.49937,242.42533 311.23196,242 308.53766,242 C 306.71944,242 305.14549,240.81023 302.91533,237.75 C 300.2334,234.06986 299.87779,232.86182 300.26318,228.74049 C 300.62526,224.86841 300.31087,223.56322 298.57705,221.74049 C 297.4049,220.50822 295.20938,217.82788 293.69812,215.78419 C 291.24484,212.46659 290.67611,212.17264 288.39127,213.04134 C 285.78085,214.03382 284.74176,213.7576 281.87987,211.31044 C 280.43336,210.07354 280.41166,209.48413 281.67746,205.81013 C 283.16746,201.48538 282.78146,200.42574 279.5,199.83264 C 278.04391,199.56946 277.48478,198.65921 277.44403,196.48558 C 277.41325,194.84351 276.86134,192.53688 276.21758,191.35974 C 275.13299,189.37653 274.77565,189.3128 271.34784,190.49123 C 269.31325,191.19069 265.61912,193.40871 263.13867,195.42017 C 259.63379,198.26237 258.04111,198.9483 255.99176,198.49819 C 251.85972,197.59064 244.43536,201.25114 242.41875,205.1902 C 241.4868,207.01059 239.32382,210.46411 237.61214,212.86469 C 234.86286,216.72048 234.48893,218.06134 234.40506,224.36469 C 234.35284,228.28911 233.95154,233.44642 233.51328,235.82537 C 232.85977,239.37273 233.10301,240.83855 234.86553,243.97454 C 237.41573,248.51199 237.05048,249.90007 231.70121,256 C 229.53079,258.475 227.32867,261.70142 226.80762,263.16983 C 226.28657,264.63823 225.27111,266.06572 224.55105,266.34204 C 223.52122,266.73722 223.46482,267.81875 224.28675,271.41058 C 225.51874,276.79441 224.13784,281 221.13807,281 C 220.09043,281 219.00806,281.86119 218.73281,282.91375 C 218.17563,285.04438 220.26348,285.96319 225.71482,285.98635 C 229.13291,286.00086 231,288.11081 231,291.95901 C 231,293.21791 231.9114,294.39601 233.2911,294.92058 C 234.5512,295.39967 236.20579,296.54304 236.96797,297.4614 C 238.15497,298.89166 238.12612,299.51648 236.76684,301.81757 C 235.29094,304.31606 235.31354,304.66899 237.08997,306.86278 C 239.40885,309.72647 239.57206,314.28034 237.41983,316.06653 C 236.17943,317.09598 235.18294,317.13007 232.78535,316.22508 C 230.02802,315.18431 229.54259,315.31178 227.79294,317.5361 C 225.56203,320.37225 223.87796,320.59168 220.15429,318.53139 C 218.69443,317.72366 215.80617,316.39398 213.73594,315.57655 C 208.94201,313.68366 208.1641,311.62189 210.86531,307.96831 C 212.03939,306.38028 213,304.47776 213,303.74049 C 213,303.00322 213.53703,301.86297 214.19341,301.20659 C 215.11795,300.28205 214.73928,299.33731 212.51261,297.01317 L 209.63842,294.01315 L 204.33436,297.00657 C 200.04455,299.42759 197.85961,300 192.90816,300 C 187.64345,300 186.87421,300.22982 187.4157,301.6409 C 188.90527,305.52268 175.82416,319 170.56691,319 C 170.29339,319 168.5472,317.66332 166.6865,316.0296 C 163.57649,313.29898 163.02882,313.14978 159.9017,314.18122 C 158.03077,314.79832 155.93075,315.44847 155.23499,315.62599 C 154.53924,315.80351 153.53788,317.08528 153.00974,318.47437 C 152.48161,319.86347 151.49467,321 150.81654,321 C 150.13842,321 151.47728,322.92953 153.79179,325.28785 C 160.04667,331.66111 159.20362,336.29005 151.28525,339.05041 C 149.58856,339.64187 147.97241,340.9975 147.6938,342.0629 C 147.41519,343.12831 146.39304,344 145.42236,344 C 143.27285,344 140,341.19033 140,339.34501 C 140,335.82591 129.99507,339.78708 126.12332,344.83909 C 122.96968,348.95408 116.92231,353 113.92534,353 C 112.5684,353 107.99887,350.975 103.77083,348.5 C 95.585336,343.7084 92.992409,343.09929 91,345.5 C 90.315311,346.325 89.171678,347 88.458595,347 C 87.745511,347 85.754493,347.7875 84.034109,348.75 L 80.906139,350.5 L 77.884296,347.15725 C 75.000581,343.9673 74.775878,343.89285 72.968471,345.52853 C 71.926782,346.47125 70.386279,346.97847 69.545131,346.65569 C 68.530581,346.26637 67.510584,347.04575 66.514997,348.971 C 65.689571,350.5672 64.570323,352.14752 64.027778,352.48283 C 62.954962,353.14587 59.340606,351.48346 57.199207,349.34206 C 55.59857,347.74143 52.595078,347.61116 49.948474,349.02758 C 48.493307,349.80636 47.056519,349.55932 44.014215,348.00725 C 40.267912,346.09603 40,346.07804 40,347.73763 C 40,348.71569 41.177736,351.72828 42.617191,354.43229 C 44.859586,358.64462 45.143901,360.11854 44.602549,364.7246 C 44.065664,369.29265 44.574015,372.01409 47.985358,382.83436 C 50.193411,389.83798 52,397.00509 52,398.76127 C 52,400.51746 53.130017,404.95652 54.511148,408.62585 C 55.892279,412.29518 57.724341,418.00663 58.582397,421.31798 C 60.71169,429.53519 67.648337,446.24849 69.494675,447.61024 C 70.322604,448.22088 71,449.60899 71,450.69494 C 71,451.7809 72.35,453.87226 74,455.34242 C 77.651928,458.5963 77.745254,460.43899 74.5,465.21481 C 71.456311,469.694 71.448175,469.95041 74.201647,474.61719 C 77.217985,479.72951 78.250589,487.7659 76.290318,490.87259 C 75.013669,492.89585 74.992513,493.62021 76.146626,495.79243 C 76.993584,497.38653 77.432565,501.11255 77.319783,505.75005 C 77.171593,511.84353 77.395963,513.06203 78.582351,512.60677 C 79.375883,512.30227 82.926057,511.75592 86.471628,511.39266 L 92.91812,510.7322 L 97.409672,515.35367 C 102.04864,520.12681 103.05062,520.32398 107.47251,517.33384 C 109.92979,515.67219 113.90376,515.68933 121.02136,517.39227 C 130.67565,519.70214 132.87168,516.96397 131.51619,504.30659 C 130.77568,497.39179 131.49878,494.53102 135.70113,487.75 C 138.43053,483.34577 141.31183,482.88424 145.50184,486.18011 C 148.12007,488.23961 148.65412,488.29493 155.15526,487.18011 C 158.94028,486.53105 163.23083,486 164.68982,486 C 167.71915,486 170.99821,488.54735 171.00374,490.90499 C 171.01007,493.60737 174.81367,498.91582 178.24086,501.0054 C 182.16459,503.39773 187.2654,503.59007 189.07154,501.4138 C 189.95631,500.34772 191.30808,500.01162 193.19399,500.3888 C 195.6759,500.88518 196,500.6584 196,498.42534 C 196,497.03678 196.63571,494.67136 197.41268,493.16886 C 199.12819,489.85143 207.25769,482.12381 211.84517,479.44985 C 218.41191,475.6222 220.85241,465.50175 217.5,456 C 215.5346,450.42946 215.64952,444.70318 217.8548,438.32143 C 219.86223,432.51221 223.73404,426.36215 226,425.38344 C 228.649,424.23928 252.36635,424.09543 255.91935,425.20197 C 257.79999,425.78767 262.74999,426.59389 266.91935,426.99357 C 274.13805,427.68556 274.23549,427.72694 268.9601,427.86013 C 265.91315,427.93706 260.96315,427.37118 257.9601,426.60263 C 254.40511,425.69283 248.05634,425.2784 239.76432,425.41486 C 228.02654,425.60804 226.83797,425.8036 224.59514,427.91062 C 218.62384,433.52036 215.53452,447.25081 218.37077,455.57475 C 222.11961,466.57699 219.56826,475.50176 211.1254,480.91953 C 208.39063,482.67443 204.3339,486.08385 202.11043,488.49602 C 198.3688,492.55522 197.63584,494.06079 196.75339,499.5 C 196.50555,501.02762 195.77909,501.43065 193.67764,501.20638 C 192.0771,501.03557 189.88199,501.73426 188.42939,502.87688 C 185.85754,504.8999 183.03252,504.69332 178.24725,502.13232 C 175.28541,500.5472 171.09776,495.25814 170.36182,492.17293 C 169.02102,486.55204 167.30007,486.0975 155.20917,488.17086 C 148.73396,489.28124 148.22343,489.22506 145.32677,487.08347 C 140.68935,483.65488 138.18755,484.58917 134.83928,491 C 132.15811,496.13356 132.00679,497.033 132.56811,504.5 C 133.56748,517.79442 131.07189,520.79694 121.02136,518.39227 C 113.90376,516.68933 109.92979,516.67219 107.47251,518.33384 C 102.99441,521.36199 101.98359,521.16667 97.324683,516.37301 L 92.823734,511.74187 L 86.424435,512.3975 C 77.266252,513.33578 77,513.514 77,518.70586 C 77,527.49817 72.216518,533.15115 60.5,538.20508 C 57.2,539.62854 53.375,541.12372 52,541.52771 C 47.10631,542.96552 36.331266,548.88123 31.950298,552.5354 C 26.843682,556.79483 23.359185,561.62772 18.372873,571.36689 C 16.439211,575.14368 13.80556,579.28535 12.520314,580.57059 C 10.482729,582.60818 10.374732,583.06611 11.676908,584.14682 C 12.563564,584.88268 13.00823,586.49057 12.771375,588.10436 C 12.3788,590.77914 12.497536,590.8428 20.217528,592.0965 C 24.532327,592.79721 28.553628,593.96215 29.153753,594.68526 C 29.753878,595.40837 31.344373,596 32.688186,596 C 36.509745,596 39.188016,597.83225 38.506268,599.98025 C 38.092477,601.28399 38.52585,602.03212 39.95821,602.48674 C 41.081195,602.84316 42,603.4982 42,603.94239 C 42,604.38657 43.252569,605.00051 44.783486,605.3067 C 46.99963,605.74993 48.114405,607.0493 50.252787,611.6817 C 51.729986,614.88176 53.477672,619.42593 54.136533,621.77985 C 55.303301,625.94837 55.2493,626.14757 52.060678,629.4374 C 48.957309,632.63926 48.823563,633.08171 49.491351,637.93711 C 49.97606,641.46137 49.810276,643.52368 48.959892,644.54833 C 47.964152,645.74812 48.042291,646.38925 49.361988,647.8475 C 53.002953,651.87072 49.874429,657.98948 43.337518,659.63014 C 40.946545,660.23023 40.308559,661.45463 41.880598,662.42621 C 43.556034,663.46168 43.805415,668.47561 42.32397,671.3404 C 40.992075,673.916 41.017857,674.9111 42.570572,680.85836 C 43.524274,684.51126 44.911046,687.99961 45.652288,688.61024 C 46.393529,689.22088 47,690.20123 47,690.78881 C 47,691.37639 47.7875,692.64465 48.75,693.60716 C 50.416675,695.27386 50.51623,695.27293 50.840855,693.58756 C 51.028325,692.61427 50.240825,690.94138 49.090855,689.87002 z M 367.75,565.02693 C 371.98353,563.10526 372,563.07696 372,557.72321 C 372,553.44074 372.4572,551.92034 374.25,550.24093 C 377.40051,547.28966 381.3114,546 387.11055,546 C 391.06501,546 392.59652,546.50561 394.54545,548.45455 C 395.89545,549.80455 397,551.96455 397,553.25455 C 397,556.81468 398.88963,558 404.56514,558 C 408.03455,558 410.51324,558.60072 412.11514,559.82978 C 417.30709,563.81331 418.32898,563.5251 422.95429,556.77279 C 424.30415,554.80218 426.6751,552.44171 428.22308,551.5273 C 430.87851,549.95869 431.57354,549.98858 440.52056,552.05605 C 451.43545,554.57825 460.50568,554.3965 462.53969,551.61483 C 463.22168,550.68216 464.10054,547.35091 464.49271,544.21206 C 464.88488,541.0732 466.28446,536.66438 467.60288,534.41467 C 471.03171,528.56381 470.79594,525.47312 466.81493,524.08533 C 462.73798,522.6641 460,520.17823 460,517.89793 C 460,516.91227 461.09517,514.04609 462.43372,511.52864 C 463.77226,509.01118 465.3972,504.37487 466.04469,501.22572 C 466.69218,498.07657 468.48115,491.45 470.02018,486.5 C 473.70229,474.65722 474.19869,471.45161 473.02529,467.0939 C 471.98947,463.24717 469.35116,461.17486 462.81248,459.07204 C 456.82201,457.14551 454,454.36646 454,450.39369 C 454,447.4913 454.57092,446.5957 457.53655,444.84593 C 459.48165,443.69829 461.74321,441.46347 462.56223,439.87966 C 463.89561,437.30119 463.88014,436.6689 462.41436,433.8344 C 461.20326,431.49237 460.94617,429.34601 461.4262,425.5844 C 462.31707,418.60328 462.18872,415.93232 460.887,414.36385 C 459.63244,412.85219 460.4885,409.56584 461.90827,410.4433 C 462.41558,410.75684 464.22995,409.83595 465.94019,408.39687 C 468.65422,406.11317 469.61893,405.86573 473.52486,406.45146 C 477.99111,407.12121 478,407.1165 478,404.08151 C 478,399.95732 480.89341,393 482.60858,393 C 483.37386,393 484,393.65917 484,394.46482 C 484,397.02251 487.50979,398.12268 492.21033,397.0384 C 498.54156,395.57796 498.67756,395.61825 503.89655,400.5 C 509.60444,405.83907 511.58638,406.15969 512.52296,401.89548 C 513.13989,399.08661 513.48578,398.84716 516.15512,399.38102 C 518.92008,399.93402 519.25853,399.6422 521.54293,394.73554 C 522.88357,391.85599 523.99128,389.05 524.0045,388.5 C 524.01773,387.95 530.37291,384.35356 538.12713,380.50792 C 545.88135,376.66227 552.84993,372.62464 553.61286,371.53541 C 556.20282,367.83772 555.30184,365.40446 549.9078,361.52923 C 545.83131,358.60056 544.91941,357.43494 545.33604,355.68542 C 547.26492,347.58564 547.1741,344.19874 544.92315,340.28763 C 543.66677,338.10462 542.93328,335.61625 543.27992,334.71293 C 543.62428,333.81554 546.19449,331.92166 548.99151,330.5043 C 553.85757,328.03848 554.0504,327.78556 553.46069,324.64217 C 553.1204,322.82825 553.51385,318.79344 554.33924,315.63266 C 556.48415,307.41893 554.04844,299.83334 549.96744,302.01743 C 545.03294,304.65829 543.48872,299.46127 547.22997,292.80461 C 549.355,289.02364 549.37457,288.78912 547.64585,287.82169 C 545.34361,286.53328 546.13313,282.81892 549.57996,278.72261 C 551.47561,276.46976 552.00097,274.75736 551.90157,271.15542 C 551.83091,268.59494 552.51531,264.36747 553.42246,261.76104 C 555.52229,255.72775 554.6967,247 552.02616,247 C 551.08226,247 549.49549,247.9 548.5,249 C 547.13543,250.50784 545.42003,251 541.52915,251 C 536.53442,251 536.29462,250.86893 534.08007,246.92868 C 532.82156,244.68945 531.19111,242.62683 530.45685,242.34507 C 529.7226,242.06331 526.37032,243.4454 523.00735,245.41639 C 515.99874,249.52402 515.3635,249.61785 510.44424,247.27202 L 506.82062,245.54403 L 504.02464,248.96981 C 501.2972,252.3116 501.13393,252.36637 497.36433,251.20392 C 495.23895,250.5485 491.96283,249.89699 490.08407,249.75613 C 487.02264,249.52658 486.55379,249.08488 485.56633,245.5 C 483.74474,238.88688 475.45027,236.11372 467.46788,239.44897 C 464.17035,240.82677 464,241.14204 464,245.86719 C 464,251.66483 463.28596,254 461.51316,254 C 460.09396,254 453.09478,244.98574 451.27212,240.81054 C 450.46663,238.96541 448.90538,237.78989 446.29902,237.06612 C 440.7503,235.52527 440.36437,235.64112 437.35795,239.75 C 433.75065,244.68011 432.07546,246 429.4255,246 C 428.07954,246 427.03281,246.76654 426.714,247.98568 C 426.2248,249.85635 425.8595,249.76948 420.40619,246.48568 C 414.15261,242.71996 412.98582,242.41418 411.30066,244.09934 C 407.93354,247.46646 403.29924,240.3309 402.60844,230.71569 C 402.4194,228.08432 401.96783,225.6345 401.60496,225.27163 C 401.2421,224.90877 397.73366,224.26872 393.80843,223.84931 C 386.5783,223.07678 385.04387,222.14338 385.01451,218.5 C 385.00412,217.20955 381.87868,213.9375 376.20487,209.27709 C 367.63164,202.23512 367.38086,201.90658 366.19452,196.1629 L 364.9777,190.27163 L 359.63342,189.19834 C 355.22437,188.31288 353.06254,188.44057 347.27989,189.92801 C 339.18455,192.01032 337,191.37754 337,186.95031 C 337,182.91337 333.8719,183.01226 327.52074,187.25 C 317.92174,193.65481 316.8142,193.95481 309.9934,191.99756 C 307.04479,191.15145 306.06426,191.31715 303.7059,193.0601 L 300.9118,195.12508 L 294.95192,193.06254 C 287.10716,190.3477 284.073,190.44973 280.73978,193.54047 C 277.56867,196.48089 277.17083,199 279.87756,199 C 282.95747,199 284.08684,201.2104 282.97957,205.07124 C 281.60566,209.86177 281.73386,210.7872 283.93453,211.96496 C 285.2136,212.6495 286.73233,212.67207 288.41697,212.03157 C 290.66734,211.17598 291.28808,211.47412 293.73244,214.5846 C 295.2546,216.52157 297.68031,219.44942 299.12291,221.09093 C 301.35391,223.62957 301.6706,224.74279 301.24244,228.54141 C 300.82871,232.21201 301.21004,233.719 303.38372,237.00366 C 305.22905,239.79213 306.74269,241 308.39174,241 C 311.41795,241 312.58018,242.52924 313.33178,247.5 C 313.99401,251.87969 313.44208,253.29774 310.67759,254.31934 C 309.1115,254.89808 308.94483,255.7317 309.49253,260.2464 C 310.32375,267.09812 308.34635,272.61039 303.12847,277.98706 C 300.13699,281.06958 298.8066,283.50513 297.89901,287.56068 C 296.98974,291.62369 296.23664,293 294.92266,293 C 291.87253,293 290,294.15076 290,296.0252 C 290,301.97928 285.51006,304.36844 276.06891,303.43813 C 269.25199,302.76641 269.25088,302.76671 267.45204,305.81191 C 265.44631,309.20734 262.58969,310.38596 259.88031,308.93595 C 258.50303,308.19884 257.8409,308.42876 257.04199,309.92155 C 255.59279,312.62939 255.74092,316.5401 257.34305,317.86974 C 258.38702,318.73616 258.94927,318.40675 259.86797,316.39043 C 261.70901,312.34979 263.68575,314.97873 264.20509,322.15852 C 264.79364,330.29527 266.21737,331.38118 275.25,330.58272 L 282,329.98604 L 282,333.99302 C 282,338.26099 282.42118,338.55076 286.41667,337.03168 C 288.52049,336.23181 289.1479,336.40784 290.02331,338.04356 C 291.72069,341.21513 288.0352,348.32464 282.94114,351.70543 C 277.66275,355.20857 273,359.51993 273,360.8974 C 273,361.47558 274.38647,362.66561 276.08105,363.54191 C 278.3174,364.69837 278.97948,365.59643 278.49597,366.81759 C 278.1296,367.74292 277.58151,369.97937 277.278,371.78749 C 276.77118,374.80672 277.3345,375.70436 284.18116,382.78749 C 293.96671,392.91105 298.37765,399.45677 298.49226,404.02481 C 298.54165,405.99354 299.5761,409.00032 300.79103,410.70653 C 305.31663,417.06215 302.47901,423.61318 294.20399,425.91359 C 288.90383,427.387 287.2106,430.29676 288.875,435.07127 C 290.85321,440.74596 290.30302,442.6178 285.5,446.55351 C 280.05803,451.0128 279.59248,454.05548 283.95762,456.63404 C 285.58431,457.59494 287.44127,459.65111 288.08421,461.20329 C 288.82362,462.98839 290.21719,464.21804 291.87659,464.54957 C 301.83168,466.53849 302.25445,468.74585 294.51347,478.31701 C 291.48106,482.06636 289,485.49891 289,485.94488 C 289,486.39086 289.63839,488.28363 290.41864,490.15103 C 291.7077,493.23619 291.64527,493.98986 289.73519,498.40243 C 287.66206,503.19166 287.65974,503.27842 289.56655,504.70062 C 292.27924,506.7239 297.34863,505.70501 303.43854,501.91253 L 308.5,498.7605 L 314,501.62566 C 317.025,503.2015 319.69586,504.61374 319.93524,504.76398 C 320.17462,504.91422 320.62528,506.94129 320.93671,509.26857 L 321.50294,513.5 L 326.0411,513.54595 C 328.63006,513.57216 331.62421,514.32381 333.01214,515.29595 C 336.01336,517.39809 338.36767,517.46684 340,515.5 C 340.68469,514.675 342.08979,514 343.12244,514 C 344.69341,514 345.03517,514.85727 345.21539,519.25 C 345.57762,528.07936 345.20359,531.70562 343.61349,534.78054 C 342.21746,537.48016 342.25378,538.1622 344.0445,542.87501 C 345.12003,545.70555 346,549.53703 346,551.38941 C 346,554.25283 346.48686,554.95428 349.25,556.07191 C 353.14196,557.64611 353.96448,558.68463 353.98469,562.05 C 353.99311,563.4525 354.54,565.14 355.2,565.8 C 356.98198,567.58198 362.92802,567.21571 367.75,565.02693 z M 494.75,525.36971 C 496.57968,524.87938 497,524.06128 497,520.99036 C 497,517.03279 498.12311,516 502.4268,516 C 505.56661,516 507.78382,513.20409 508.57685,508.24479 C 509.50374,502.44832 510.70632,501.19275 516.68238,499.78211 C 521.50723,498.64322 522.02236,498.22233 524.14921,493.68144 C 526.80231,488.01695 530.18629,484.99967 533.88486,485.00079 C 535.32319,485.00122 539.3529,486.35122 542.83979,488.00079 C 549.87898,491.33087 552.56493,491.64365 555.44113,489.4682 C 558.28642,487.31613 561.70001,487.6694 565.41111,490.5 C 572.72355,496.07747 574.15588,492.54551 571.25543,476.08856 C 570.1321,469.71485 569.40587,464.17993 569.64158,463.78873 C 569.8773,463.39753 571.74187,462.80639 573.78508,462.47507 C 582.5005,461.06181 583.25816,459.71876 580.48918,450.59107 C 578.71864,444.75466 578.60237,440.43909 580.09993,436.1432 C 581.46726,432.22086 584.68015,431.26194 589.75026,433.26296 C 591.81262,434.07691 596.19953,435.0721 599.49896,435.4745 C 602.79839,435.87689 606.68228,436.81858 608.12984,437.56714 C 611.29114,439.20192 616,444.59251 616,446.57673 C 616,448.55549 619.95936,448.3762 625.71298,446.1369 C 628.34584,445.11219 632.3,443.9488 634.5,443.55159 C 639.86258,442.58337 645.54901,439.28524 646.87557,436.37374 C 647.98927,433.92945 650.4013,433.22226 651.50936,435.01515 C 651.85443,435.57348 653.64477,436.66039 655.48789,437.43049 C 657.33101,438.2006 659.36105,439.80611 659.99909,440.99831 C 661.0408,442.94475 661.32962,443.01304 662.82958,441.66758 C 663.74831,440.84348 666.3,439.84245 668.5,439.44306 C 670.7,439.04366 674.53308,437.66303 677.01794,436.37498 C 680.84596,434.3907 682.08928,434.18587 685.15971,435.03365 C 689.85898,436.33118 691.57133,438.28095 689.51233,439.98977 C 688.68055,440.68008 688,442.0056 688,442.93535 C 688,444.77822 692.17152,449.07228 695.75,450.913 C 697.50763,451.8171 698,452.93382 698,456.01613 C 698,459.51133 698.31402,460.02907 700.75,460.55016 C 707.63766,462.02351 710,464.58121 710,470.5651 C 710,472.49566 710.51782,473 712.5,473 C 714.35985,473 715,472.47105 715,470.93426 C 715,468.06603 716.79403,465 718.47231,465 C 719.51235,465 719.72964,464.10885 719.31405,461.54787 C 718.89094,458.94049 719.38816,457.01337 721.34599,453.67259 C 724.34757,448.55079 726.93605,447.52861 731.77969,449.55242 C 736.70089,451.60862 738.92973,451.35906 741.17866,448.5 C 743.4351,445.63141 744.71738,445.44393 748.66896,447.4049 C 750.22603,448.1776 752.85,449.1958 754.5,449.66758 C 757.00086,450.38264 757.80323,451.43834 759.32252,456.01268 C 761.42883,462.35444 762.97044,464.3309 767.16612,466.06881 C 769.72867,467.13025 770.62175,467.06394 773.04537,465.63227 C 775.76391,464.02639 776.08737,464.04294 779.68674,465.97209 C 781.76774,467.08744 783.96378,468 784.56682,468 C 785.16986,468 789.45152,466.03817 794.08163,463.64037 C 801.37577,459.86296 802.5452,458.89476 802.83849,456.39037 C 803.29161,452.52108 804.71187,451.00011 807.87244,450.99946 C 811.83201,450.99864 819.88708,442.86014 819.24625,439.50786 C 818.6854,436.57395 820.46535,434 823.05506,434 C 824.05065,434 825.16484,433.05601 825.53103,431.90224 C 826.03012,430.32975 826.80416,429.92057 828.62228,430.26813 C 829.95628,430.52314 831.31109,430.30567 831.63296,429.78486 C 831.95484,429.26406 833.2941,429.10798 834.60909,429.43802 C 836.51731,429.91696 837,429.6449 837,428.09048 C 837,427.01929 837.65654,425.48632 838.45898,424.68388 C 839.65022,423.49264 839.6961,422.7469 838.70898,420.62025 C 838.04404,419.18769 836.9375,418.01209 836.25,418.0078 C 835.5625,418.00351 834.19137,417.19137 833.20304,416.20304 C 832.21471,415.21471 829.06471,412.88893 826.20304,411.03463 C 823.34137,409.18033 821,407.26365 821,406.77535 C 821,406.28706 819.03353,405.01768 816.63006,403.95451 L 812.26012,402.02148 L 811.56163,394.01404 C 810.73679,384.55825 811.29344,382.21544 814.55974,381.39565 C 818.2356,380.47307 816.43294,379 811.62807,379 C 808.22246,379 806.81032,378.41145 804.54655,376.04859 C 802.99135,374.42531 800.45822,372.82028 798.91737,372.48185 C 797.37652,372.14342 794.23438,370.50361 791.93483,368.83783 C 788.9504,366.67592 787.00203,365.95225 785.12692,366.30921 C 779.07084,367.46209 771.68153,369.97823 770.0707,371.43601 C 767.89178,373.40792 765.60345,373.43204 764,371.5 C 763.31531,370.675 761.88063,370 760.81181,370 C 756.83253,370 755,368.12318 755,364.04772 C 755,360.05342 758.01935,351.72411 759.88531,350.57088 C 760.46327,350.21368 760.87562,348.31141 760.80164,346.34361 C 760.71384,344.00805 761.21821,342.45739 762.25427,341.87758 C 763.67628,341.08178 763.68677,340.67939 762.35511,338.01002 C 761.01006,335.3138 761.03809,334.74411 762.65001,332.01533 C 763.62967,330.3569 765.12169,328.98569 765.96561,328.9682 C 769.09344,328.90337 763.68003,326 760.43132,326 C 758.67878,326 756.67626,325.31484 755.98126,324.47742 C 755.2654,323.61486 753.92824,323.20539 752.89659,323.53282 C 750.26476,324.36813 747.33283,322.46223 746.5692,319.41971 C 745.94124,316.9177 745.68066,316.8208 741.3335,317.4727 L 736.75864,318.15874 L 730.00793,311.14881 C 724.96361,305.9108 722.35652,303.96991 719.69397,303.47041 C 713.99398,302.40109 712.86665,300.35578 712.58517,290.57297 C 712.36951,283.07729 712.03381,281.6649 709.93762,279.4336 C 708.18169,277.5645 707.56488,275.81701 707.64068,272.92612 C 707.73043,269.50329 707.40902,268.88978 705.241,268.34564 C 703.48273,267.90434 702.46431,268.20585 701.81914,269.3587 C 700.18025,272.28722 695.34062,274 688.70465,274 C 683.57997,274 681.95051,274.3972 680.5,276 C 678.94846,277.71444 677.42003,278 669.79535,278 C 658.06285,278 655.86007,279.17431 651.90991,287.53485 C 649.09369,293.49539 647.77227,294.67098 644.57517,294.06015 C 628.26251,290.94346 627.04437,290.41016 627.01531,286.37244 C 626.98676,282.4059 624.72803,281.64836 616.18244,282.73931 C 610.73119,283.43522 607.12252,284.52884 604.20952,286.36773 C 599.46062,289.36559 596.80852,289.67914 594.96716,287.46043 C 593.91554,286.19331 592.21854,286.04021 585.37742,286.5953 C 579.60925,287.06333 576.1432,286.88774 574.05211,286.02159 C 569.38389,284.08794 566.38913,285.50265 558.88699,293.18553 C 552.49947,299.72693 552.07403,300.42432 553.50584,302.00646 C 556.33439,305.13196 556.94088,309.49932 555.37767,315.4855 C 554.57665,318.55297 554.05148,322.72581 554.21063,324.75848 C 554.48683,328.286 554.261,328.58336 549.25,331.29059 C 546.35365,332.85536 544,334.83012 544,335.69544 C 544,336.55811 544.94828,338.79829 546.1073,340.67361 C 548.18921,344.04222 548.24471,347.66998 546.33692,355.68189 C 545.91638,357.44797 546.78421,358.49612 550.89072,361.18189 C 554.89564,363.80122 555.96785,365.0674 555.98203,367.19424 C 556.01074,371.49868 552.35353,374.48297 538.62457,381.35796 L 525.74913,387.80553 L 522.62457,394.15276 C 519.85766,399.77344 519.19726,400.46894 516.85527,400.22865 C 514.70259,400.00779 514.01458,400.51943 513.15729,402.97865 C 511.67612,407.22752 509.2425,406.82196 503.65989,401.39594 C 498.64016,396.51701 498.42453,396.47598 489.30032,398.66405 C 487.7964,399.02471 486.29622,398.38713 484.5574,396.6483 C 482.03206,394.12297 482.00634,394.11963 480.90677,396.1742 C 480.29771,397.31224 479.49212,400.3261 479.11657,402.87168 L 478.43375,407.5 L 473.67587,407.19561 C 469.76526,406.94542 468.37599,407.34728 465.87432,409.45229 C 464.20031,410.86089 462.41876,411.75881 461.91533,411.44767 C 460.67874,410.68342 460.74544,413.34544 461.99417,414.59417 C 463.18289,415.78289 463.29925,418.74292 462.4262,425.5844 C 461.94617,429.34601 462.20326,431.49237 463.41436,433.8344 C 464.91467,436.73567 464.91878,437.25638 463.46363,440.07034 C 462.59037,441.75902 460.30514,444.06744 458.38532,445.20016 C 455.28747,447.02794 454.9288,447.66695 455.19737,450.87983 C 455.51987,454.73767 455.61513,454.81006 467.26695,460.05076 C 469.88877,461.23 472.56376,463.16349 473.21136,464.34741 C 475.18099,467.94819 474.4409,476.15426 471.25181,486.07478 C 469.58538,491.25865 467.69218,498.07657 467.04469,501.22572 C 466.3972,504.37487 464.77226,509.01118 463.43372,511.52864 C 460.33578,517.35506 460.36674,519.53897 463.5771,521.64247 C 467.06433,523.92739 489.93015,526.66138 494.75,525.36971 z M 557.4893,293.53961 C 566.38938,284.51848 569.26596,283.0391 574.05211,285.02159 C 576.1432,285.88774 579.60925,286.06333 585.37742,285.5953 C 592.21854,285.04021 593.91554,285.19331 594.96716,286.46043 C 596.80388,288.67355 599.45849,288.36693 604.16074,285.39853 C 606.81606,283.7223 610.77277,282.45185 615.28567,281.82646 C 624.16105,280.59653 626.79349,281.22637 627.56829,284.76523 C 627.89761,286.26935 628.32581,288.02465 628.51986,288.66589 C 628.71391,289.30712 631.48882,290.34594 634.68634,290.97437 C 637.88385,291.60279 641.6591,292.4899 643.07578,292.94573 C 646.78002,294.13758 648.75496,292.61111 651.47958,286.45026 C 654.92216,278.66597 658.08891,277.00847 669.52776,277.00374 C 677.31528,277.00051 678.79078,276.72524 680.26797,275 C 681.65736,273.37731 683.21791,273 688.53987,273 C 694.44024,273 701,271.08175 701,269.35633 C 701,269.03057 699.65,267.22646 698,265.34722 C 696.35,263.46797 695,261.15142 695,260.19933 C 695,259.24724 696.84593,255.3254 699.10207,251.48413 C 706.1608,239.46603 706.254,240 697.09769,240 C 688.24595,240 687.0498,239.26204 686.07186,233.1976 C 685.57278,230.10271 684.62183,228.94829 680.23779,226.1153 C 677.35701,224.25371 675,222.12153 675,221.37711 C 675,220.57056 673.37815,219.76429 670.98643,219.38184 C 667.7845,218.86983 666.84471,218.22947 666.33918,216.21525 C 665.99065,214.82661 666.21704,212.9726 666.84227,212.09522 C 670.81964,206.51386 671.965,203.02381 671.33287,198.41187 C 670.56229,192.78991 672.20425,191 678.13211,191 C 682.27104,191 684.19982,189.25095 681.6404,187.81863 C 677.52575,185.51596 681.41946,179.04619 686.03777,180.51199 C 688.51735,181.29898 688.50782,180.28668 686,176.5 C 683.58854,172.85882 683.4586,170.40236 685.61366,169.19633 C 686.90629,168.47294 687.00577,167.87929 686.11366,166.21238 C 685.50115,165.06789 685,163.30861 685,162.30287 C 685,161.29713 683.9875,160.03005 682.75,159.48713 C 681.5125,158.94421 680.36735,157.6 680.20521,156.5 C 680.04308,155.4 679.10084,153.43407 678.11134,152.13126 C 676.54411,150.06778 676.02114,149.91832 674.05326,150.97149 L 671.79427,152.18047 L 672.14713,143.00298 C 672.52388,133.20443 672.79001,132.68374 679.81536,128 L 682.06527,126.5 L 680.03264,122.53856 C 677.49972,117.60211 677.46512,115.35099 679.89881,113.83112 C 681.7576,112.67029 681.75551,112.58832 679.79944,109.94259 C 678.22287,107.81018 678.02736,106.8174 678.87284,105.2376 C 679.46222,104.13633 680.63194,102.97148 681.47222,102.64903 C 683.50725,101.86812 683.40216,99.718213 681.19575,96.993414 L 679.3915,94.76526 L 674.65653,98.102776 C 669.09593,102.02225 667.03881,101.46106 665.66446,95.649717 C 665.04562,93.033002 664.26337,92 662.90066,92 C 659.7464,92 657.34009,88.621378 656.61812,83.178888 C 655.95502,78.180205 655.84065,78.034369 651.71958,76.93258 C 646.21835,75.461798 645,74.36394 645,70.877555 C 645,68.029096 644.93969,68 639.03518,68 C 634.09382,68 632.88671,67.656836 632,66 C 631.4113,64.9 630.24954,64 629.41831,64 C 628.58708,64 627.14041,62.652845 626.20349,61.006323 C 623.99808,57.130575 619.84336,56.853605 618.19452,60.472412 C 616.57679,64.02294 612.80046,64.657832 608.63012,62.080418 C 606.7427,60.913928 604.91705,59.226226 604.57313,58.329967 C 604.02153,56.892539 603.678,56.953877 601.65945,58.850203 C 599.09582,61.258607 596.97652,61.576517 595.21667,59.816667 C 593.81147,58.411474 594.03797,58.140905 590.97945,64.878334 C 589.6366,67.836418 587.49331,70.941117 586.21657,71.777665 C 584.09592,73.167173 583.66203,73.127451 581.19762,71.31818 L 578.5,69.337698 L 573.25,71.649354 C 570.3625,72.920764 568,74.559355 568,75.290667 C 568,77.460409 561.94144,83 559.56843,83 C 558.3616,83 556.0808,81.65 554.5,80 C 552.9192,78.35 551.06715,77 550.38434,77 C 548.29952,77 546.10905,74.118684 544.96561,69.872287 C 544.06998,66.546157 544.16276,65.400539 545.4921,63.371706 C 546.40039,61.985484 546.83467,60.054456 546.48553,58.954417 C 546.13451,57.848449 546.3286,57 546.93261,57 C 547.51968,57 548,55.853513 548,54.452251 C 548,52.972219 549.12548,50.861447 550.68557,49.415599 L 553.37114,46.926697 L 551.25156,44.807115 C 548.67871,42.23427 542.68292,40.035484 538.18426,40.015056 C 534.30505,39.997441 531.05424,38.464122 529.12317,35.741175 C 527.92135,34.046536 526.76423,33.844349 520.02027,34.150608 C 512.66145,34.48479 512.09042,34.685585 508.00663,38.37505 C 503.73516,42.234065 503.69314,42.246779 496.83376,41.755993 C 488.68692,41.173089 485.52918,39.104084 486.37001,34.89995 C 486.76294,32.935296 486.25505,31.648786 484.39764,29.903842 C 482.58797,28.203737 481.97959,26.716563 482.19804,24.526871 L 482.5,21.5 L 473.37541,21.49857 C 464.33794,21.497154 464.24091,21.523409 463.21228,24.24857 C 461.21879,29.529911 453.50356,26.607036 445.57834,17.568053 L 440.65669,11.954731 L 437.98449,14.514859 C 436.51478,15.922929 433.69785,17.520756 431.72464,18.065587 C 429.00004,18.817882 427.42244,20.21746 425.16674,23.883444 C 422.96507,27.461612 421.40824,28.868351 419.1502,29.31996 C 416.61849,29.826302 415.99048,30.533834 415.43243,33.50849 C 414.9574,36.04061 413.58618,38.025744 410.74546,40.293881 C 408.53694,42.057246 404.50089,45.6559 401.77647,48.29089 C 397.79734,52.139403 397.05255,53.358389 397.99005,54.488015 C 398.77233,55.4306 398.92688,57.737041 398.45881,61.483371 C 397.57429,68.562847 395.28023,70 384.86411,70 C 378.81186,70 377.25049,69.644501 375.31445,67.825686 L 373,65.651372 L 370.68555,67.825686 C 367.1042,71.190193 363.99895,70.59356 359.09731,65.599155 L 354.77821,61.19831 L 351.63911,62.988509 C 349.9126,63.973119 346.73201,65.08899 344.57113,65.468224 C 339.5545,66.348639 334.54441,71.264486 333.06525,76.757664 C 331.75244,81.633073 325.91614,87 321.92714,87 C 320.4877,87 318.47756,86.080191 317.46016,84.95598 C 316.44277,83.831769 314.68552,83.044269 313.55517,83.20598 C 311.71632,83.469053 311.48983,84.236791 311.40341,90.5 C 311.24723,101.81943 311.18061,102.05469 306.92655,106.30874 C 303.36339,109.8719 302.98467,110.67093 303.90331,112.68713 C 304.61376,114.2464 304.63069,115.84115 303.95565,117.61666 C 303.26125,119.44306 303.31556,121.23067 304.13422,123.49464 C 305.61031,127.57669 304.8473,129.61069 301.02368,131.78655 C 299.36761,132.72895 298.0098,133.78125 298.00632,134.125 C 297.99262,135.47935 304.32041,135.90663 308.36622,134.82454 C 311.90842,133.87714 313.78058,133.9892 319.27972,135.47775 C 332.18054,138.96983 333.30479,143.78421 322.75,150.33843 C 321.2375,151.27765 320,152.89893 320,153.94127 C 320,156.76215 318.93989,159 317.60359,159 C 316.95325,159 316.4389,160.2375 316.46058,161.75 C 316.52088,165.95685 311.3185,168.28398 303.35425,167.61271 C 297.86276,167.14986 297.15413,167.30259 296.69787,169.04736 C 296.06507,171.46716 289.89891,171.78805 288,169.5 C 286.31398,167.46847 285.01031,167.6545 281.64565,170.40673 C 279.19023,172.41522 278.94989,173.03786 279.926,174.86174 C 281.10932,177.07278 279.58907,181.40824 276.32054,185.14379 C 275.06144,186.58281 275.12272,187.23621 276.81247,190.38892 L 278.74267,193.99026 L 281.27906,191.99513 C 284.49397,189.46628 287.49254,189.48107 294.95192,192.06254 L 300.9118,194.12508 L 303.7059,192.06805 C 306.14703,190.27087 306.99789,190.14925 310.44124,191.10531 C 316.01665,192.65335 320.05922,191.70491 325.46134,187.58137 C 332.6839,182.06827 338,181.51169 338,186.26862 C 338,190.46753 339.55312,190.9097 347.3279,188.92424 C 353.51259,187.34485 355.25721,187.26031 360,188.31016 L 365.5,189.52763 L 367.04832,195.76075 C 368.54622,201.79093 368.87993,202.22768 377.29832,209.17579 C 383.72001,214.47593 386,216.97239 386,218.70361 C 386,221.52791 389.21184,223 395.37397,223 C 401.45023,223 403.17181,224.6434 403.63435,230.88526 C 404.30697,239.96209 408.19664,246.20336 411.26722,243.13278 C 412.98182,241.41818 414.12834,241.70535 420.22455,245.37629 C 425.36817,248.47362 425.87198,248.59756 426.3221,246.87629 C 426.63837,245.66687 427.7092,245 429.33495,245 C 432.17944,245 433.42439,243.96354 437,238.61866 C 439.35925,235.09201 439.72519,234.91595 443.5,235.49135 C 448.45921,236.2473 451.62718,238.24933 452.57021,241.22336 C 453.56068,244.34698 459.8948,252.5 461.33109,252.5 C 462.03754,252.5 462.69782,250.12618 463,246.5 C 463.47086,240.84964 463.70396,240.39479 467,238.69462 C 471.4096,236.42005 479.05483,236.90877 482.82449,239.70619 C 484.31514,240.81238 485.91025,243.30992 486.42637,245.34583 C 487.2715,248.67956 487.65988,249 490.85537,249 C 492.78182,249 495.85572,249.54158 497.68627,250.20352 C 500.86851,251.35423 501.14071,251.2559 503.89019,247.96247 L 506.76584,244.51791 L 510.41684,246.25896 C 515.36327,248.61774 515.99512,248.52614 522.96799,244.43946 C 526.46867,242.38777 529.77559,241.11362 530.77157,241.43278 C 531.7222,241.7374 533.4,243.67715 534.5,245.74332 C 536.36166,249.24015 536.84958,249.52044 541.55387,249.79546 C 545.61324,250.03277 546.97201,249.68841 548.45886,248.04546 C 549.47697,246.92046 551.30327,246 552.51731,246 C 554.45109,246 554.80573,246.68998 555.37901,251.56765 C 555.8481,255.55894 555.57184,258.46101 554.40324,261.81765 C 553.50666,264.39294 552.83091,268.59494 552.90157,271.15542 C 552.99985,274.71689 552.4712,276.47928 550.65185,278.65542 C 547.12196,282.87757 546.44129,285.87097 548.64474,287.48218 C 550.39984,288.76554 550.38392,288.97217 548.23543,292.79489 C 545.30309,298.01229 545.30415,302 548.23788,302 C 548.73539,302 552.89852,298.19283 557.4893,293.53961 z "
     id="path2220" />
</svg>
